<svg xmlns="http://www.w3.org/2000/svg" xmlns:xlink="http://www.w3.org/1999/xlink" xmlns:inkscape="http://www.inkscape.org/namespaces/inkscape" version="1.1" width="595.28" height="702.785" viewBox="0 0 595.28 702.785">
<defs>
<clipPath id="clip_0">
<path transform="matrix(1,0,0,-1,0,702.785)" d="M0 702.785H595.28V0H0Z"/>
</clipPath>
</defs>
<g inkscape:groupmode="layer" inkscape:label="Layer 1">
<g clip-path="url(#clip_0)">
<path transform="matrix(1,0,0,-1,242.92,105.7959)" d="M0 0C-1.677 .403-3.033-.59-4.376-1.33-10.571-4.744-16.108-9.112-20.961-14.184-25.302-18.721-29.211-23.697-33.062-28.671-36.24-32.777-38.847-37.283-40.6-42.216-40.886-43.022-41.06-43.908-41.068-44.759-41.075-45.451-40.097-45.725-39.65-45.179-39.361-44.826-39.248-44.329-39.055-43.898-38.077-41.718-37.33-39.393-36.074-37.388-33.452-33.206-30.714-29.078-27.742-25.139-24.139-20.364-20.144-15.904-15.562-12.01-10.934-8.078-6.256-4.224-.581-1.833 .208-1.501 .483-.935 0 0M-58.895-110.317C-58.664-105.689-58.447-101.061-58.198-96.434-57.617-85.654-57.018-74.875-56.43-64.096-56.243-60.663-56.281-57.2-55.827-53.803-55.416-50.733-54.661-47.676-53.735-44.714-47.93-26.159-36.829-11.317-21.506 .419-4.636 13.34 14.538 20.493 35.625 22.658 56.087 24.76 75.836 21.939 94.717 13.748 113.2 5.729 128.437-6.339 139.573-23.286 146.296-33.517 150.515-44.705 152.494-56.814 153.477-62.833 153.743-68.881 154.152-74.927 154.741-83.622 155.123-92.332 155.588-101.036 155.604-101.326 155.562-101.62 155.522-102.403 155.004-101.468 154.695-100.948 154.421-100.409 153.325-98.251 152.017-96.261 150.064-94.763 144.567-90.547 137.362-92.096 134.18-98.218 132.488-101.472 131.794-104.978 131.74-108.63 131.64-115.345 131.586-122.062 131.39-128.775 131.255-133.406 129.445-137.344 125.743-140.218 119.853-144.788 112.336-143.092 108.89-136.506 107.762-134.351 107.025-132.14 107.193-129.629 107.354-127.24 107.354-124.827 107.229-122.435 107.142-120.782 106.929-119.078 106.413-117.516 104.666-112.23 101.038-109.552 95.976-109.58 90.386-109.611 86.105-112.516 84.58-117.746 83.991-119.764 84.132-122.006 84.032-124.15 83.927-126.385 84.081-128.64 83.862-130.861 83.35-136.053 79.733-140.075 74.673-141.311 69.722-142.521 64.509-140.504 61.652-136.255 60.372-134.349 59.681-132.258 59.701-129.939 59.734-126.26 59.751-122.581 59.753-118.902 59.754-115.905 59.18-113.017 57.954-110.278 54.517-102.6 43.967-101.311 38.723-107.94 36.668-110.537 35.712-113.536 35.669-116.845 35.524-128.12 35.318-139.394 35.237-150.669 35.211-154.204 34.077-157.251 31.926-159.958 29.722-162.732 26.788-164.254 23.276-164.548 19.246-164.886 16.083-163.223 13.856-159.928 11.85-156.96 10.656-153.7 10.813-150.014 10.952-146.74 10.879-143.457 11.017-140.183 11.119-137.794 10.526-135.599 9.612-133.441 5.758-124.335-5.74-125.966-9.514-131.003-11.189-133.238-12.334-135.625-12.266-138.499-12.218-140.577-12.229-142.658-12.275-144.737-12.422-151.471-17.797-156.699-24.487-156.645-31.222-156.59-36.552-151.37-36.546-144.607-36.538-136.13-36.38-127.653-36.252-119.177-36.206-116.172-36.774-113.299-37.835-110.507-41.496-100.875-52.197-102.044-56.533-107.868-57.184-108.742-57.817-109.628-58.459-110.508-58.604-110.444-58.75-110.38-58.895-110.317" fill="#41b5ce"/>
<path transform="matrix(1,0,0,-1,372.5604,487.26548)" d="M0 0C.928-.69 1.439-1.335 2.058-1.466 2.934-1.651 3.518-1.028 3.604-.099 3.691 .839 2.916 1.739 2.046 1.502 1.422 1.333 .923 .704 0 0M2.178 9.326C1.269 10.028 .768 10.659 .137 10.842-.713 11.088-1.522 10.16-1.433 9.231-1.344 8.305-.746 7.663 .118 7.833 .743 7.956 1.26 8.63 2.178 9.326M12.241 9.859C11.313 10.583 10.818 11.213 10.192 11.399 9.338 11.653 8.457 10.744 8.551 9.854 8.645 8.956 9.208 8.285 10.104 8.459 10.736 8.581 11.272 9.197 12.241 9.859M-79.791-10.916C-98.767-10.629-112.281-10.4-125.795-10.227-141.709-10.023-157.624-9.909-173.537-9.677-184.81-9.513-192.863-.975-192.668 10.268-192.391 26.26-192.226 42.253-192.008 58.246-191.993 59.286-191.951 60.325-191.902 61.363-191.584 68.106-186.121 73.337-179.555 73.193-172.951 73.048-167.586 67.705-167.523 60.982-167.476 55.946-167.565 50.901-167.826 45.872-168.059 41.4-166.66 37.528-164.107 34.007-161.925 30.998-158.998 29.272-155.173 29.188-151.457 29.107-148.695 30.732-146.765 33.792-144.666 37.12-143.772 40.827-143.7 44.738-143.587 50.975-143.512 57.213-143.389 63.449-143.28 68.946-139.563 73.663-134.295 75.06-129.034 76.454-123.472 74.159-120.656 69.432-119.525 67.533-119.029 65.462-118.921 63.268-118.55 55.744-111.568 50.599-104.288 52.456-102.111 53.012-100.315 54.153-98.998 55.962-97.026 58.672-95.835 61.656-95.839 65.08-95.844 68.918-95.803 72.758-95.686 76.595-95.497 82.83-90.84 87.822-84.643 88.531-78.859 89.194-73.165 85.232-71.649 79.409-71.372 78.344-71.306 77.195-71.316 76.087-71.421 64.651-71.544 53.215-71.704 41.779-71.747 38.762-71.241 35.893-69.856 33.201-66.741 27.15-60.444 26.298-55.944 27.533-53.331 28.249-51.549 30.08-50.247 32.383-48.645 35.219-47.855 38.303-47.698 41.54-47.559 44.415-47.518 47.295-47.406 50.172-47.145 56.855-41.919 61.915-35.301 61.911-28.592 61.907-23.235 56.751-23.028 50.027-22.957 47.71-23.057 45.388-23.06 43.069-23.066 37.945-19.297 33.239-14.311 32.128-8.631 30.862-4.235 32.878-1.716 37.933-.634 40.104 .023 42.382 .037 44.842 .072 51.16 .133 57.479 .23 63.796 .253 65.307 .301 66.848 .608 68.319 1.877 74.404 7.633 78.627 13.63 77.982 19.956 77.302 24.717 72.194 24.667 65.861 24.534 48.986 24.457 32.109 24.026 15.241 23.883 9.68 22.906 4.11 20.282-.99 16.663-8.021 10.952-11.953 3.032-11.913-14.401-11.824-31.833-11.456-49.267-11.234-61.262-11.082-73.258-10.983-79.791-10.916" fill="#209db8"/>
<path transform="matrix(1,0,0,-1,263.2958,500.37837)" d="M0 0C15.633 .123 31.164-.484 46.853-.483 46.922-1.172 47.026-1.695 47.02-2.217 46.847-19.811 46.676-37.406 46.478-55 46.337-67.475 46.166-79.949 45.99-92.423 45.962-94.42 45.912-96.422 45.743-98.41 44.754-110.081 34.785-119.544 23.124-119.924 11.304-120.31 .627-111.809-.976-100.188-1.658-95.24-1.284-90.142-1.325-85.111-1.347-82.395-1.215-79.678-1.185-76.96-1.084-68.002-1.011-59.044-.904-50.086-.754-37.611-.589-25.137-.419-12.662-.37-9.145-.285-5.629-.2-2.113-.185-1.491-.085-.87 0 0" fill="#c79b65"/>
</g>
<text fill="#130125" xml:space="preserve" transform="matrix(.95346459 0 -0 1.0488067 0 702.785)" font-size="16.090477" font-family="Lato"><tspan y="-323.44609" x="190.28626 199.94054 211.76705 221.83968 231.12387 234.92122 239.04038 251.31742 262.21067 271.70405 283.53056 293.6032 304.49644 312.75086 316.54823 320.6674 332.94444 345.8168 354.53785 364.0409 374.93415 383.18858 394.9346 399.43995 410.1884 413.98576">PURE. NATURAL. NOSTALGIC..</tspan></text>
<text fill="#09768d" xml:space="preserve" transform="matrix(1 0 -0 1 0 702.785)" font-size="69.1341" font-family="Gabelisa"><tspan y="-371.7744" x="143.4546 165.68123 202.04578 254.86423 307.68269 332.64009 357.87403 375.71064 393.6855 418.74659">summer ice</tspan></text>
</g>
</svg>
