<svg width="71" height="70" viewBox="0 0 71 70" fill="none" xmlns="http://www.w3.org/2000/svg">
<path d="M62.5399 25.9929C62.4267 25.9363 62.1156 25.9363 62.0025 25.8797C61.8894 25.8232 61.4651 25.8232 61.2672 25.8232C60.051 25.8232 59.1743 26.304 58.6935 27.1524L52.2451 37.7866L44.1281 37.928C42.7989 37.928 41.6676 39.0027 41.6676 40.3885C41.6676 40.7562 41.7524 41.0956 41.8938 41.4067H28.884C29.0254 41.0956 29.1103 40.7562 29.1103 40.3885C29.1103 39.0027 27.979 37.928 26.6497 37.928H18.5327L12.0844 27.1524C11.6036 26.304 10.6985 25.8232 9.51069 25.8232C9.341 25.8232 8.91676 25.8232 8.77535 25.8797C8.66222 25.9363 8.35112 25.9363 8.23799 25.9929C-0.0204194 27.8878 -0.0487013 45.5076 0.00786318 48.8732C0.00786318 51.956 1.08259 53.3135 3.31688 54.162C3.85425 54.4165 4.53302 54.5296 5.07038 54.5296H19.2681V66.8041C19.2681 68.6142 20.6539 70 22.4639 70C24.274 70 25.6598 68.6142 25.6598 66.8041V51.4469C25.6598 50.5984 25.2922 49.6934 24.6982 49.156C24.0478 48.5055 23.1993 48.1379 22.4074 48.1379H12.9328V41.039L8.01173 32.6675C7.75719 32.2998 7.8986 31.8756 8.18143 31.7059C8.54909 31.4513 8.97333 31.5928 9.14302 31.8756L14.856 41.5764C14.8843 41.6329 14.9409 41.6895 14.9692 41.7744V46.2147H55.8087V41.7744C55.8653 41.7178 55.8935 41.6612 55.9218 41.5764L61.6348 31.8756C61.8045 31.5645 62.2288 31.4513 62.5964 31.7059C62.9075 31.8756 63.0207 32.2998 62.7661 32.6675L57.845 41.039V48.1379H48.3987C47.6068 48.1379 46.7867 48.5055 46.1079 49.156C45.514 49.6934 45.1463 50.5984 45.1463 51.4469V66.8041C45.1463 68.6142 46.5321 70 48.3422 70C50.1522 70 51.5381 68.6142 51.5381 66.8041V54.5296H65.7357C66.2731 54.5296 66.9519 54.4165 67.4893 54.162C69.7235 53.3135 70.7983 51.956 70.7983 48.8732C70.8548 45.5359 70.8265 27.8878 62.5399 25.9929Z" fill="#068585"/>
<path d="M61.6776 22.1091C62.8851 19.194 61.5008 15.852 58.5857 14.6445C55.6706 13.437 52.3286 14.8213 51.1211 17.7364C49.9136 20.6515 51.2978 23.9935 54.2129 25.201C57.128 26.4085 60.4701 25.0242 61.6776 22.1091Z" fill="#068585"/>
<path d="M19.6507 22.1118C20.8582 19.1967 19.4739 15.8546 16.5588 14.6471C13.6437 13.4396 10.3017 14.8239 9.09421 17.739C7.88671 20.6541 9.27099 23.9961 12.1861 25.2036C15.1012 26.4111 18.4432 25.0269 19.6507 22.1118Z" fill="#068585"/>
<path d="M31.684 18.0456V18.2152H34.8516H35.9546H39.1222V18.0456C39.1222 16.2355 39.8293 14.482 41.102 13.1527C42.4029 11.7669 43.2231 9.87199 43.2231 7.80739C43.2231 3.45193 39.6313 -0.0833507 35.2475 0.00149598C30.9769 0.114625 27.583 3.67819 27.6396 7.92052C27.6679 9.92856 28.4598 11.7669 29.7608 13.1244C30.9486 14.482 31.684 16.2072 31.684 18.0456Z" fill="#068585"/>
<path d="M39.1222 19.3182H31.684V20.7889H39.1222V19.3182Z" fill="#068585"/>
<path d="M34.286 23.7869H36.5203C37.3405 23.7869 38.0192 23.1081 38.0192 22.2879V21.9202H32.8153V22.2879C32.787 23.1081 33.4658 23.7869 34.286 23.7869Z" fill="#068585"/>
</svg>
