<svg width="69" height="70" viewBox="0 0 69 70" fill="none" xmlns="http://www.w3.org/2000/svg">
<path d="M3.27448 0L2.259 2.54175L14.4266 7.40787L15.4299 4.86612L3.27448 0ZM65.5048 0.00152022L53.3433 4.86612L54.3466 7.40787L66.5081 2.54327L65.5048 0.00152022ZM34.3866 0.208266C29.9781 0.208266 26.7857 2.34869 24.551 5.42098C22.3163 8.4948 21.161 12.5218 21.161 15.8662C21.161 17.8424 22.2251 20.0923 23.3653 21.7949C24.5054 23.4975 25.6303 24.6225 25.6303 24.6225L25.8584 24.8505L27.2721 29.0918H30.1301L25.0679 11.3163L34.3866 14.422L43.7053 11.3163L38.6431 29.0918H41.5011L42.9149 24.8505L43.1429 24.6225C43.1429 24.6225 44.2678 23.4975 45.408 21.7949C46.5481 20.0923 47.6122 17.8424 47.6122 15.8662C47.6122 12.5218 46.4569 8.4948 44.2222 5.42098C41.9875 2.34869 38.7951 0.208266 34.3866 0.208266ZM53.845 14.498V17.2343H68.4388V14.498H53.845ZM0.334441 14.5132V17.2496H14.9282V14.5132H0.334441ZM29.1116 15.5469L32.988 29.0918H35.7852L39.6617 15.5469L34.3866 17.3104L29.1116 15.5469ZM54.3466 24.3184L53.3433 26.8723L65.5048 31.7369L66.5081 29.183L54.3466 24.3184ZM14.4266 24.3336L2.259 29.1982L3.27448 31.7521L15.4299 26.8875L14.4266 24.3336ZM28.4579 31.8281V33.9564H40.3153V31.8281H28.4579ZM28.4579 36.6927V38.821H40.3153V36.6927H28.4579ZM21.3282 37.088C17.2085 37.164 13.332 37.8481 11.1582 38.7754L0 70C10.8085 67.8565 21.8755 66.0475 33.0184 69.8632V41.5573H25.7215V37.2552C24.5206 37.1488 23.2892 37.088 22.0883 37.088H21.3282ZM46.6849 37.088C45.484 37.088 44.2526 37.1488 43.0517 37.2552V41.5573H35.7548V69.8632C46.8977 66.0475 57.9647 67.8565 68.7732 70L57.615 38.7754C55.4412 37.8481 51.5647 37.164 47.445 37.088H46.6849Z" fill="#068585"/>
</svg>
