<svg width="70" height="70" viewBox="0 0 70 70" fill="none" xmlns="http://www.w3.org/2000/svg">
<path d="M66.0452 47.0462L59.9014 26.4422L59.865 26.5534C59.111 11.762 46.8791 0 31.9019 0C16.4377 0 3.90015 12.5355 3.90015 27.9996V38.1104C3.90015 44.551 6.08122 50.4792 9.7364 55.2088V70H42.5276V64.0186C49.2417 61.2607 54.6443 55.9714 57.5517 49.3384L64.8855 48.7424C65.2828 48.7104 65.6438 48.501 65.8703 48.172C66.0945 47.8409 66.1585 47.4286 66.0452 47.0462ZM30.8295 56.6486C29.4708 56.6486 28.2916 55.8902 27.6872 54.7729H33.972C33.3695 55.8902 32.1882 56.6486 30.8295 56.6486ZM35.7962 52.5022H25.7965C25.0252 52.5022 24.3973 51.8805 24.3973 51.1072C24.3973 50.3382 25.0254 49.7123 25.7965 49.7123H35.7962C36.5675 49.7123 37.1934 50.3382 37.1934 51.1072C37.1934 51.8805 36.5675 52.5022 35.7962 52.5022ZM35.7962 47.9028H25.7965C25.0252 47.9028 24.3973 47.2747 24.3973 46.5057C24.3973 45.7324 25.0254 45.1086 25.7965 45.1086H35.7962C36.5675 45.1086 37.1934 45.7324 37.1934 46.5057C37.1934 47.2747 36.5675 47.9028 35.7962 47.9028ZM38.9152 37.6254C36.5888 39.1635 36.3795 40.3128 36.3795 43.186H25.2134C25.2134 40.3128 25.0061 39.1635 22.6776 37.6254C18.6871 34.9871 16.0532 30.4605 16.0532 25.3165C16.0532 17.1753 22.6521 10.5744 30.7953 10.5744C38.9386 10.5744 45.5417 17.1753 45.5417 25.3165C45.5417 30.4605 42.9056 34.9871 38.9152 37.6254Z" fill="#068585"/>
</svg>
