<svg width="53" height="70" viewBox="0 0 53 70" fill="none" xmlns="http://www.w3.org/2000/svg">
<path d="M51.8318 24.8111C52.1664 23.7568 52.0614 22.836 51.6677 22.1033C51.2981 21.364 50.7338 20.7909 50.0492 20.3666C49.9726 20.3163 49.8961 20.2725 49.8217 20.2266C49.6904 19.6951 49.5636 19.1614 49.3974 18.6386C49.673 17.5603 49.8982 16.5892 49.8304 16.0467C49.7845 14.9422 49.3711 14.1132 48.7499 13.5598C48.1484 12.9911 47.4266 12.6477 46.6327 12.4815C46.5539 12.4618 46.4795 12.4574 46.4008 12.4399C46.1033 11.9959 45.7709 11.5738 45.4428 11.1516C45.3444 10.0143 45.1891 9.03217 44.9616 8.51597C44.0954 6.46651 42.2887 6.05749 40.7358 6.2609C40.6417 6.26747 40.5521 6.28496 40.4602 6.29809C40.0315 5.98531 39.594 5.68347 39.1435 5.39693C38.6623 4.36673 38.1832 3.50057 37.7917 3.09374C36.2803 1.46423 34.4408 1.69827 33.0497 2.42006C32.9754 2.45506 32.9032 2.49881 32.8244 2.53599C32.3061 2.38507 31.7789 2.24727 31.2474 2.12916C30.4534 1.33518 29.7163 0.705249 29.2176 0.453714C28.2465 -0.0996645 27.3125 -0.07123 26.5273 0.140935C25.7333 0.335601 25.075 0.869294 24.5325 1.44017C24.4691 1.5036 24.4122 1.57359 24.351 1.63702C23.8107 1.67421 23.2748 1.7267 22.7455 1.79669C21.7131 1.31987 20.7945 0.974283 20.2367 0.910852C19.1322 0.724935 18.2682 1.07052 17.5989 1.5386C16.9186 1.99355 16.4834 2.72191 16.1706 3.44152C16.1334 3.51807 16.1072 3.59681 16.0744 3.67556C15.5822 3.89428 15.0988 4.12613 14.6242 4.37548C13.4978 4.27705 12.531 4.29236 11.9711 4.39298C10.8862 4.61389 10.1862 5.2307 9.70723 5.88032C9.24572 6.56275 9.08168 7.39609 9.01825 8.16164C9.0095 8.2535 9.01168 8.34537 9.00731 8.43723C8.62454 8.80251 8.26364 9.18965 7.9093 9.5768C6.79817 9.87427 5.87952 10.222 5.38082 10.5151C4.43593 11.0969 3.99191 11.915 3.76225 12.6871C3.56321 13.4854 3.69663 14.3254 3.89786 15.069C3.92192 15.1587 3.95254 15.244 3.98097 15.3315C3.74475 15.8149 3.50852 16.2939 3.30292 16.7926C2.39302 17.4422 1.65154 18.0634 1.28845 18.4987C0.627896 19.3736 0.461664 20.2856 0.514158 21.0949C0.606023 21.9152 1.01285 22.6566 1.45687 23.2866C1.5028 23.3522 1.55311 23.4134 1.60123 23.4769C1.54436 24.0106 1.52686 24.5574 1.50499 25.0998C0.864121 26.0338 0.369798 26.8846 0.175132 27.4249C-0.144209 28.4726 0.0110875 29.3869 0.33699 30.1262C0.704451 30.8654 1.34094 31.4254 1.97306 31.8628C2.04743 31.9153 2.12399 31.9591 2.20054 32.0072C2.33178 32.5343 2.45864 33.0615 2.62268 33.5755C2.34709 34.6538 2.16992 35.6096 2.16992 36.1739C2.26178 37.2545 2.66643 38.0856 3.2548 38.6565C3.87598 39.2142 4.63059 39.538 5.37645 39.7348C5.46175 39.7545 5.54268 39.7698 5.6258 39.7829C5.92545 40.2291 6.2601 40.6491 6.58601 41.0756C6.67131 41.9418 6.78723 42.7095 6.92503 43.2694C4.60434 47.6177 -0.835385 58.1866 0.689139 58.9106C4.81213 59.0943 10.5843 60.1945 10.5843 60.1945C10.5843 60.1945 14.0665 66.2423 14.7073 66.7913C16.8902 59.6542 20.4686 54.5076 22.7477 51.7342C22.7696 51.7451 22.7958 51.7691 22.8177 51.7779C23.7801 52.27 24.655 52.3007 25.4271 52.0929L34.8608 70L39.535 62.3949L50.9853 60.562C50.9853 60.562 46.6064 48.6348 43.0105 43.8491C43.0105 43.825 43.0105 43.8053 43.0105 43.7856C43.3889 43.4225 43.7476 43.0376 44.102 42.6504C45.2022 42.3464 46.1755 42.0489 46.6217 41.7121C47.081 41.4124 47.4463 41.0712 47.7241 40.7125C47.9756 40.3341 48.1353 39.9339 48.2337 39.5314C48.4284 38.7287 48.3628 37.9281 48.1091 37.1582C48.0806 37.0729 48.0522 36.9898 48.0238 36.9023C48.26 36.4167 48.5028 35.929 48.7084 35.4237C49.6205 34.7719 50.4144 34.1704 50.7141 33.7111C51.0444 33.2714 51.2697 32.8274 51.4074 32.3922C51.5146 31.9503 51.5277 31.5194 51.4818 31.1082C51.39 30.288 51.0531 29.5575 50.5522 28.921C50.5063 28.8597 50.4538 28.7985 50.4079 28.7394C50.4647 28.2101 50.48 27.6699 50.5019 27.1318C51.1494 26.2022 51.7093 25.3492 51.8318 24.8111ZM43.6689 35.1131C42.2953 35.5462 41.1579 36.034 40.9326 37.6897C40.9108 38.09 40.937 38.7812 40.9086 39.6408C40.5958 39.9798 40.2852 40.3188 39.9506 40.6316C39.8149 40.6272 39.675 40.6207 39.5393 40.6185C38.8154 40.5704 38.1264 40.5682 37.5533 40.7781C36.9693 40.9837 36.4509 41.3118 36.0835 42.1058C35.9019 42.4317 35.7007 43.1273 35.3814 43.9387C34.9789 44.1531 34.5699 44.3499 34.1521 44.5315C34.0165 44.479 33.8853 44.4221 33.7518 44.374C33.0891 44.0787 32.4395 43.8403 31.8314 43.8425C31.2146 43.8359 30.6109 43.9737 29.9941 44.5905C29.712 44.8333 29.2876 45.4173 28.7124 46.0669C28.2662 46.126 27.8156 46.1719 27.3607 46.2026C27.2579 46.1063 27.1529 46.0101 27.0479 45.916C26.5251 45.4151 25.998 44.9733 25.4227 44.7721C24.8453 44.5468 24.2351 44.4746 23.4433 44.8443C23.0889 44.9843 22.4874 45.3823 21.7153 45.8023C21.2735 45.7039 20.8382 45.5857 20.4051 45.4654C20.3395 45.3342 20.2717 45.2052 20.2061 45.0783C19.8868 44.4265 19.5412 43.8338 19.0687 43.4466C18.605 43.0354 18.0538 42.7598 17.1833 42.8342C16.8071 42.8473 16.1159 43.0135 15.2607 43.1426C14.8736 42.8998 14.4973 42.6395 14.1299 42.3683C14.1146 42.2327 14.0971 42.0927 14.0818 41.9571C14.003 41.2375 13.8696 40.5747 13.5678 40.0432C13.3053 39.4614 12.8175 39.0764 12.0126 38.8118C11.6801 38.6762 10.9409 38.6259 10.1031 38.4575C9.82097 38.0922 9.53663 37.7313 9.27853 37.3485C9.31353 37.2042 9.34852 37.0598 9.38133 36.9154C9.55413 36.2133 9.65474 35.5462 9.55413 34.9447C9.51038 34.3082 9.18667 33.7745 8.51736 33.2539C8.24614 33.0112 7.55497 32.7049 6.81567 32.25C6.67787 31.8213 6.5707 31.3795 6.46133 30.9376C6.54226 30.8195 6.62319 30.7036 6.70631 30.5855C7.45216 29.3759 8.06022 28.2626 7.13938 26.8496C6.97097 26.5303 6.42634 26.0141 5.89483 25.3448C5.91233 24.8855 5.92545 24.4218 5.97357 23.969C6.09606 23.8815 6.21855 23.794 6.34322 23.7065C7.45654 22.8273 8.41019 21.9895 8.0296 20.3447C7.97711 19.9751 7.64027 19.2948 7.36686 18.4724C7.54184 18.0525 7.74088 17.6412 7.94211 17.2344C8.07553 17.1972 8.21114 17.1579 8.34894 17.1229C9.70505 16.681 10.8687 16.2086 11.0852 14.5441C11.1421 14.1744 11.0743 13.4483 11.1005 12.5952C11.4177 12.2496 11.737 11.9084 12.0717 11.5847C12.2095 11.5978 12.3495 11.6066 12.4916 11.6175C13.9155 11.6656 15.171 11.6219 15.9453 10.1324C16.1269 9.80209 16.3128 9.08466 16.6365 8.27975C17.0346 8.06977 17.4414 7.87729 17.857 7.69137C17.9926 7.75043 18.126 7.81167 18.2594 7.87073C18.9025 8.11789 19.5477 8.35193 20.1711 8.39349C20.7857 8.40442 21.3697 8.19882 22.0084 7.65857C22.1987 7.48358 22.4502 7.1555 22.7674 6.74648C22.9249 6.56275 23.102 6.36589 23.2923 6.1581C23.7451 6.09686 24.2022 6.05311 24.6616 6.0203C24.7644 6.12092 24.8672 6.21935 24.97 6.31777C25.4905 6.77054 26.0155 7.21018 26.5864 7.46609C27.1638 7.68481 27.7806 7.69575 28.5637 7.40484C28.8043 7.30423 29.1542 7.08331 29.5917 6.80553C29.8104 6.68523 30.0444 6.55618 30.3025 6.42495C30.7422 6.52119 31.1709 6.63711 31.5996 6.7596C31.663 6.89302 31.7308 7.02426 31.7942 7.15549C32.1223 7.76574 32.4745 8.34537 32.9229 8.78282C33.3866 9.19403 33.9684 9.40619 34.8039 9.39963C35.062 9.38869 35.4645 9.29683 35.9719 9.18746C36.2038 9.15247 36.4684 9.11528 36.744 9.0781C37.1355 9.32745 37.5161 9.58773 37.888 9.86114C37.9055 10.0011 37.9186 10.1411 37.9339 10.2789C38.0345 10.9635 38.1657 11.6285 38.4348 12.195C38.7344 12.7374 39.2047 13.1377 39.9921 13.4198C40.2371 13.4986 40.6505 13.5532 41.1623 13.6232C41.392 13.6692 41.6522 13.7217 41.9213 13.7829C42.1991 14.1394 42.479 14.4938 42.7328 14.8722C42.6956 15.0165 42.665 15.1631 42.6321 15.3052C42.3194 16.7117 42.1641 17.9431 43.4961 18.9624C43.8395 19.1833 44.4607 19.5157 45.2066 19.9838C45.3422 20.4103 45.4472 20.85 45.5587 21.2918C45.48 21.4121 45.4012 21.5302 45.3269 21.6505C44.5526 22.8666 43.9861 23.9712 44.885 25.382C45.13 25.7013 45.5915 26.2219 46.1252 26.9021C46.1077 27.3505 46.0946 27.8011 46.0487 28.2429C45.9262 28.3348 45.8037 28.4267 45.6856 28.5185C44.5438 29.3934 43.6383 30.2399 43.997 31.8716C44.1173 32.2609 44.3841 32.9149 44.6532 33.7461C44.4804 34.166 44.2813 34.5751 44.0779 34.9797C43.9379 35.0322 43.8023 35.0694 43.6689 35.1131Z" fill="#068585"/>
</svg>
