<svg width="376" height="384" viewBox="0 0 376 384" fill="none" xmlns="http://www.w3.org/2000/svg">
<path d="M342.688 223.672C337.377 225.498 333.56 237.941 331.069 242.767C331.015 242.876 330.958 242.977 330.904 243.086C330.754 243.375 330.52 243.61 330.231 243.76C329.943 243.909 329.616 243.966 329.294 243.923C328.972 243.879 328.672 243.737 328.434 243.516C328.196 243.295 328.033 243.005 327.966 242.688C326.644 236.787 326.077 230.848 331.562 226.167C340.69 218.363 342.35 211.224 341.845 202.923C341.528 197.62 343.523 193.377 345.026 191.006C346.648 188.405 348.059 185.679 349.248 182.854C371.205 131.139 336.028 145.824 332.88 158.263C330.641 167.146 334.043 172.532 326.298 178.739C316.473 186.602 315.678 195.01 315.898 198.884C316.118 202.757 319.549 208.513 311.911 216.038C304.273 223.563 304.055 232.196 306.932 240.942C309.808 249.688 304.386 256.547 301.4 260.09L301.386 260.108C301.26 260.264 301.095 260.384 300.908 260.456C300.721 260.527 300.519 260.548 300.321 260.515C300.124 260.482 299.938 260.398 299.784 260.27C299.63 260.142 299.513 259.976 299.445 259.787C298.108 256.107 295.288 254.525 293.324 253.671C290.778 252.563 288.012 247.585 285.91 240.61C283.807 233.635 269.979 227.329 264.557 230.318C259.134 233.306 255.926 246.265 260.36 252.785C264.794 259.305 287.024 265.403 285.918 274.921C284.812 284.439 301.186 290.084 301.186 290.084C302.202 289.876 303.144 289.4 303.914 288.705C308.216 291.28 314.639 293.802 318.273 288.915C318.813 288.191 319.354 287.375 319.891 286.485C321.394 286.397 323.668 285.558 327.068 283.436C339.847 275.462 336.527 268.827 338.519 263.183C340.51 257.538 349.141 248.913 349.141 248.913C360.445 231.142 347.999 221.846 342.688 223.672Z" fill="#068585"/>
<path d="M311.657 283.289C311.533 283.289 311.413 283.241 311.325 283.153C311.236 283.066 311.185 282.948 311.183 282.824C310.648 249.39 319.576 217.962 327.158 197.484C335.375 175.3 343.832 160.821 343.918 160.676C343.949 160.622 343.991 160.575 344.04 160.537C344.09 160.5 344.146 160.472 344.206 160.456C344.267 160.44 344.329 160.436 344.391 160.444C344.453 160.453 344.512 160.473 344.566 160.504C344.62 160.535 344.667 160.577 344.705 160.627C344.743 160.676 344.77 160.733 344.786 160.793C344.802 160.853 344.806 160.916 344.798 160.977C344.79 161.039 344.769 161.099 344.738 161.153C344.654 161.295 336.231 175.718 328.046 197.828C320.491 218.227 311.603 249.526 312.136 282.813C312.137 282.875 312.126 282.937 312.103 282.994C312.08 283.052 312.046 283.105 312.003 283.149C311.96 283.194 311.909 283.23 311.852 283.254C311.795 283.279 311.734 283.292 311.672 283.294L311.657 283.289Z" fill="white"/>
<path d="M298.693 284.328C298.582 284.328 298.474 284.288 298.389 284.216C298.304 284.145 298.247 284.045 298.227 283.936C293.401 256.203 265.023 238.008 264.735 237.828C264.629 237.761 264.554 237.654 264.526 237.532C264.499 237.409 264.521 237.281 264.588 237.175C264.655 237.069 264.762 236.994 264.884 236.966C265.006 236.939 265.135 236.961 265.241 237.028C265.53 237.211 294.255 255.622 299.159 283.772C299.171 283.833 299.171 283.896 299.159 283.957C299.147 284.018 299.122 284.076 299.087 284.128C299.052 284.18 299.008 284.224 298.955 284.258C298.903 284.293 298.845 284.316 298.784 284.328C298.754 284.332 298.723 284.332 298.693 284.328Z" fill="white"/>
<path d="M318.657 282.511C318.615 282.511 318.572 282.506 318.531 282.494C318.471 282.478 318.415 282.45 318.366 282.412C318.317 282.374 318.276 282.326 318.245 282.272C318.215 282.218 318.195 282.158 318.188 282.097C318.18 282.035 318.185 281.973 318.202 281.913C323.605 262.345 338.863 241.25 339.016 241.04C339.051 240.985 339.096 240.938 339.15 240.902C339.203 240.865 339.264 240.84 339.327 240.828C339.391 240.816 339.457 240.817 339.52 240.831C339.583 240.845 339.643 240.872 339.695 240.91C339.748 240.948 339.792 240.996 339.825 241.052C339.858 241.108 339.879 241.17 339.887 241.234C339.895 241.299 339.89 241.364 339.872 241.426C339.854 241.489 339.823 241.546 339.782 241.596C339.629 241.806 324.464 262.765 319.113 282.165C319.085 282.264 319.026 282.352 318.944 282.415C318.861 282.478 318.761 282.511 318.657 282.511Z" fill="white"/>
<path d="M315.086 243.781C314.993 243.781 314.903 243.753 314.826 243.702C314.748 243.651 314.688 243.579 314.651 243.494C314.615 243.409 314.604 243.315 314.62 243.224C314.636 243.133 314.678 243.049 314.742 242.981C319.532 237.918 322.506 230.267 322.535 230.181C322.554 230.119 322.586 230.062 322.629 230.013C322.671 229.964 322.723 229.924 322.781 229.896C322.84 229.868 322.903 229.852 322.968 229.849C323.033 229.847 323.097 229.857 323.158 229.881C323.218 229.904 323.273 229.939 323.32 229.985C323.366 230.03 323.402 230.084 323.427 230.144C323.451 230.204 323.463 230.269 323.462 230.334C323.46 230.398 323.446 230.462 323.419 230.521C323.295 230.84 320.346 238.424 315.428 243.621C315.385 243.67 315.332 243.709 315.274 243.737C315.215 243.764 315.151 243.779 315.086 243.781Z" fill="white"/>
<path d="M314.049 252.08C313.947 252.079 313.848 252.046 313.767 251.985C313.685 251.924 313.625 251.838 313.596 251.74C313.567 251.643 313.571 251.538 313.606 251.443C313.641 251.347 313.706 251.265 313.791 251.209C319.681 247.396 322.059 240.717 322.082 240.646C322.123 240.527 322.21 240.43 322.323 240.375C322.436 240.321 322.566 240.313 322.684 240.354C322.803 240.395 322.9 240.482 322.955 240.595C323.009 240.708 323.017 240.838 322.976 240.956C322.877 241.242 320.458 248.015 314.305 252.004C314.229 252.053 314.14 252.079 314.049 252.08Z" fill="white"/>
<path d="M322.69 271.561C322.579 271.561 322.471 271.522 322.386 271.45C322.301 271.379 322.244 271.28 322.224 271.17C322.205 271.061 322.224 270.948 322.28 270.851C322.335 270.755 322.422 270.681 322.527 270.642C327.061 268.985 334.294 258.824 334.368 258.721C334.402 258.666 334.447 258.619 334.5 258.582C334.553 258.545 334.614 258.519 334.677 258.507C334.74 258.494 334.806 258.494 334.869 258.508C334.932 258.521 334.992 258.547 335.045 258.585C335.098 258.622 335.142 258.67 335.176 258.725C335.21 258.781 335.232 258.842 335.24 258.906C335.249 258.97 335.245 259.036 335.228 259.098C335.211 259.16 335.181 259.219 335.14 259.269C334.836 259.689 327.661 269.774 322.852 271.532C322.8 271.551 322.746 271.561 322.69 271.561Z" fill="white"/>
<path d="M277.953 248.275C277.933 248.278 277.913 248.278 277.894 248.275C277.831 248.269 277.771 248.251 277.716 248.221C277.661 248.191 277.612 248.15 277.573 248.101C277.534 248.052 277.505 247.995 277.488 247.935C277.471 247.874 277.466 247.811 277.474 247.749C278.335 240.742 273.907 235.652 273.865 235.601C273.822 235.555 273.789 235.5 273.768 235.441C273.747 235.382 273.737 235.319 273.741 235.256C273.744 235.193 273.759 235.132 273.787 235.075C273.814 235.018 273.852 234.968 273.899 234.926C273.947 234.884 274.001 234.852 274.061 234.832C274.121 234.811 274.184 234.803 274.246 234.807C274.309 234.812 274.371 234.828 274.427 234.857C274.483 234.885 274.533 234.924 274.574 234.972C274.767 235.182 279.327 240.428 278.412 247.862C278.398 247.975 278.344 248.079 278.259 248.154C278.175 248.23 278.066 248.273 277.953 248.275Z" fill="white"/>
<path d="M291.859 266.345C291.797 266.344 291.736 266.332 291.678 266.309C283.755 263.021 275.342 255.998 275.258 255.926C275.162 255.846 275.102 255.73 275.092 255.605C275.081 255.48 275.12 255.356 275.201 255.26C275.281 255.164 275.397 255.104 275.522 255.093C275.647 255.082 275.771 255.122 275.867 255.202C275.951 255.272 284.261 262.203 292.041 265.434C292.142 265.477 292.224 265.553 292.275 265.649C292.326 265.746 292.342 265.857 292.321 265.964C292.299 266.071 292.242 266.167 292.158 266.236C292.073 266.306 291.968 266.344 291.859 266.345Z" fill="white"/>
<path d="M325.206 204.333C325.113 204.333 325.022 204.306 324.944 204.254C324.866 204.202 324.806 204.128 324.77 204.042C321.918 197.228 323.775 188.57 323.855 188.205C323.869 188.144 323.894 188.087 323.93 188.036C323.966 187.985 324.012 187.942 324.065 187.909C324.117 187.875 324.176 187.853 324.238 187.842C324.299 187.832 324.362 187.833 324.423 187.847C324.483 187.861 324.541 187.887 324.592 187.923C324.643 187.959 324.686 188.004 324.719 188.057C324.752 188.11 324.775 188.168 324.785 188.23C324.796 188.291 324.794 188.354 324.78 188.415C324.762 188.501 322.909 197.148 325.643 203.683C325.668 203.741 325.681 203.803 325.682 203.866C325.683 203.929 325.671 203.992 325.648 204.051C325.624 204.109 325.589 204.162 325.545 204.207C325.5 204.252 325.447 204.288 325.389 204.312C325.33 204.33 325.268 204.337 325.206 204.333Z" fill="white"/>
<path d="M283.44 283.191H336.961V305.312C336.961 307.845 336.462 310.354 335.493 312.695C334.523 315.036 333.102 317.162 331.311 318.954C329.519 320.745 327.393 322.166 325.052 323.136C322.711 324.105 320.202 324.604 317.669 324.604H302.735C300.201 324.604 297.692 324.105 295.352 323.136C293.011 322.166 290.884 320.745 289.093 318.954C287.301 317.162 285.88 315.036 284.911 312.695C283.941 310.354 283.442 307.845 283.442 305.312V283.191H283.44Z" fill="white"/>
<path d="M317.669 325.085H302.733C297.492 325.079 292.468 322.994 288.762 319.289C285.056 315.583 282.972 310.559 282.966 305.318V283.191C282.966 283.065 283.016 282.944 283.105 282.855C283.194 282.766 283.314 282.716 283.44 282.716H336.962C337.087 282.716 337.208 282.766 337.297 282.855C337.386 282.944 337.436 283.065 337.436 283.191V305.312C337.431 310.554 335.348 315.579 331.642 319.286C327.936 322.994 322.911 325.079 317.669 325.085ZM283.912 283.663V305.312C283.918 310.302 285.902 315.086 289.431 318.614C292.959 322.142 297.743 324.127 302.733 324.132H317.669C322.659 324.127 327.443 322.142 330.971 318.614C334.499 315.086 336.484 310.302 336.489 305.312V283.657L283.912 283.663Z" fill="#068585"/>
<path d="M167.468 96.7319C167.4 96.7316 167.332 96.7164 167.269 96.6873C167.207 96.6583 167.152 96.6161 167.107 96.5636C167.063 96.5112 167.03 96.4498 167.012 96.3836C166.993 96.3174 166.989 96.2479 167 96.18L170.467 75.5969L166.795 74.98C163.764 74.4695 161.061 72.7763 159.279 70.2727C157.497 67.7691 156.783 64.6603 157.293 61.63L166.041 9.66132C166.552 6.6324 168.244 3.93013 170.746 2.14846C173.249 0.366781 176.356 -0.348503 179.385 0.159815L304.934 21.299C306.434 21.5515 307.871 22.0972 309.16 22.9047C310.45 23.7123 311.568 24.766 312.451 26.0057C313.333 27.2453 313.963 28.6467 314.304 30.1297C314.645 31.6127 314.69 33.1484 314.437 34.649L305.687 86.6156C305.435 88.1161 304.889 89.5522 304.081 90.8418C303.274 92.1315 302.22 93.2494 300.98 94.1317C299.741 95.014 298.339 95.6435 296.856 95.9841C295.373 96.3248 293.838 96.37 292.337 96.1171L277.229 93.5738C277.111 93.547 277.007 93.4759 276.94 93.3753C276.872 93.2747 276.846 93.152 276.866 93.0326C276.886 92.9131 276.951 92.8059 277.048 92.7329C277.145 92.66 277.266 92.6267 277.386 92.6401L292.495 95.1854C293.874 95.4181 295.285 95.3766 296.648 95.0635C298.011 94.7503 299.299 94.1715 300.439 93.3602C301.578 92.5489 302.546 91.521 303.288 90.3353C304.03 89.1495 304.531 87.8292 304.762 86.4498L313.512 34.4832C313.977 31.7024 313.319 28.8507 311.683 26.5548C310.046 24.2589 307.565 22.7066 304.785 22.2391L179.236 1.0936C176.453 0.62474 173.598 1.28058 171.299 2.91685C168.999 4.55313 167.444 7.03579 166.975 9.8187L158.227 61.7853C157.758 64.5683 158.414 67.4234 160.05 69.7228C161.686 72.0222 164.169 73.5773 166.952 74.0462L171.09 74.7429C171.151 74.7531 171.21 74.7753 171.263 74.8082C171.316 74.8412 171.362 74.8843 171.398 74.935C171.434 74.9857 171.459 75.043 171.473 75.1037C171.487 75.1643 171.489 75.2271 171.478 75.2885L168.094 95.3889L198.193 79.4055C198.286 79.3572 198.392 79.3403 198.495 79.3573L236.581 85.7699C236.642 85.7801 236.701 85.8023 236.754 85.8353C236.807 85.8682 236.852 85.9113 236.888 85.962C236.924 86.0127 236.95 86.07 236.964 86.1307C236.978 86.1914 236.98 86.2542 236.969 86.3155C236.947 86.4387 236.877 86.5484 236.775 86.621C236.673 86.6935 236.547 86.7233 236.423 86.7037L198.495 80.3162L167.689 96.6837C167.62 96.7178 167.545 96.7344 167.468 96.7319Z" fill="#068585"/>
<path d="M229.232 270.174C231.846 269.841 234.248 268.566 235.99 266.589C237.731 264.612 238.692 262.067 238.692 259.433L239.399 110.598L236.742 104.859C236.742 104.859 231.927 101.646 229.398 100.209C227.817 99.3087 225.986 98.9485 224.181 99.1829L9.45745 126.565C6.84409 126.899 4.44217 128.174 2.70134 130.152C0.960518 132.13 0.000140504 134.674 0 137.309V284.851C0.253905 293.901 12.4204 299.357 12.4204 299.357L229.232 270.174Z" fill="#068585"/>
<path d="M17.1795 300.276L233.2 272.726C235.83 272.391 238.247 271.109 239.999 269.119C241.751 267.13 242.717 264.57 242.717 261.919V113.481C242.715 112.28 242.459 111.092 241.963 109.997C241.468 108.902 240.745 107.925 239.843 107.132C238.941 106.338 237.88 105.745 236.731 105.392C235.582 105.04 234.371 104.936 233.179 105.088L17.148 132.631C14.5187 132.967 12.1019 134.249 10.3501 136.238C8.59841 138.228 7.63197 140.787 7.63184 143.438V291.882C7.63209 293.085 7.88872 294.274 8.38463 295.37C8.88053 296.466 9.60431 297.444 10.5077 298.238C11.4112 299.032 12.4735 299.625 13.6239 299.976C14.7744 300.327 15.9865 300.43 17.1795 300.276Z" fill="white"/>
<path d="M16.0966 300.813C13.726 300.812 11.4526 299.87 9.7763 298.194C8.10001 296.518 7.15803 294.244 7.15747 291.874V143.438C7.1626 140.673 8.17275 138.005 9.99964 135.93C11.8265 133.856 14.3455 132.516 17.0871 132.161L233.104 104.613C234.363 104.452 235.643 104.561 236.857 104.933C238.071 105.305 239.192 105.931 240.145 106.77C241.098 107.609 241.861 108.642 242.384 109.799C242.906 110.956 243.176 112.211 243.176 113.481V261.915C243.171 264.68 242.16 267.348 240.333 269.423C238.506 271.498 235.986 272.837 233.244 273.192L17.2276 300.742C16.8525 300.789 16.4748 300.813 16.0966 300.813ZM234.239 105.488C233.902 105.488 233.564 105.51 233.23 105.551L17.2067 133.101C14.6934 133.426 12.3841 134.654 10.7092 136.556C9.03441 138.458 8.10839 140.904 8.10385 143.438V291.882C8.10362 293.017 8.34522 294.139 8.81255 295.174C9.27989 296.208 9.96223 297.131 10.8141 297.881C11.6661 298.631 12.668 299.191 13.7532 299.524C14.8385 299.856 15.9821 299.954 17.108 299.81L233.129 272.262C235.643 271.937 237.952 270.709 239.627 268.807C241.302 266.904 242.229 264.458 242.234 261.923V113.481C242.234 112.431 242.027 111.392 241.625 110.422C241.223 109.452 240.634 108.571 239.892 107.829C239.15 107.086 238.268 106.498 237.298 106.096C236.328 105.695 235.289 105.488 234.239 105.488Z" fill="#068585"/>
<path d="M24.9037 293.282L225.453 267.707C227.894 267.395 230.138 266.204 231.764 264.357C233.391 262.51 234.288 260.133 234.287 257.672V119.869C234.287 118.753 234.05 117.65 233.59 116.633C233.131 115.616 232.46 114.708 231.622 113.971C230.785 113.233 229.8 112.682 228.733 112.355C227.666 112.028 226.541 111.932 225.434 112.073L24.8848 137.65C22.4435 137.961 20.1993 139.152 18.5727 140.999C16.9461 142.845 16.0487 145.222 16.0485 147.683V285.486C16.0487 286.602 16.2867 287.706 16.7464 288.723C17.2062 289.74 17.8773 290.647 18.715 291.384C19.5527 292.122 20.5379 292.673 21.605 293C22.672 293.327 23.7966 293.423 24.9037 293.282Z" fill="white"/>
<path d="M23.9091 293.819C21.699 293.818 19.5795 292.94 18.0169 291.377C16.4543 289.814 15.5764 287.694 15.5764 285.484V147.681C15.5836 145.108 16.5255 142.626 18.2267 140.695C19.9279 138.765 22.2725 137.519 24.824 137.189L225.373 111.614C226.547 111.464 227.739 111.566 228.871 111.913C230.002 112.26 231.046 112.844 231.935 113.626C232.823 114.408 233.534 115.37 234.022 116.448C234.509 117.526 234.761 118.696 234.762 119.879V257.678C234.754 260.252 233.812 262.734 232.111 264.664C230.409 266.595 228.064 267.841 225.512 268.17L24.9625 293.752C24.6131 293.796 24.2613 293.819 23.9091 293.819ZM226.429 112.482C226.116 112.482 225.803 112.502 225.493 112.541L24.9436 138.118C22.6181 138.418 20.4809 139.553 18.9313 141.313C17.3817 143.073 16.5255 145.336 16.5228 147.681V285.484C16.5227 286.533 16.746 287.57 17.1779 288.526C17.6097 289.482 18.2402 290.335 19.0273 291.028C19.8144 291.721 20.7402 292.239 21.7429 292.546C22.7457 292.854 23.8024 292.944 24.8429 292.812L225.392 267.237C227.719 266.938 229.857 265.802 231.407 264.042C232.957 262.282 233.813 260.018 233.815 257.672V119.869C233.815 118.899 233.624 117.938 233.253 117.042C232.882 116.146 232.338 115.332 231.652 114.646C230.966 113.96 230.152 113.416 229.256 113.045C228.359 112.673 227.399 112.482 226.429 112.482Z" fill="#068585"/>
<path d="M143.083 383.75L363.917 355.27C364.673 355.18 365.367 354.81 365.863 354.233C366.359 353.656 366.621 352.915 366.597 352.154C366.582 351.157 366.501 344.128 366.501 344.128L249.736 277.374C243.885 274.033 236.306 272.743 229.633 273.597L11.5872 301.715C10.9419 301.799 10.3295 302.049 9.81058 302.442C9.29168 302.834 8.88423 303.356 8.62851 303.954L8.27808 304.775C8.27808 304.775 8.46483 310.638 8.38929 312.006C8.35305 312.574 8.479 313.14 8.75245 313.639C9.0259 314.138 9.43558 314.549 9.93371 314.824L123.778 379.92C129.626 383.259 136.403 384.604 143.083 383.75Z" fill="#068585"/>
<path d="M143.083 375.927L363.126 347.502C366.047 347.129 366.815 343.253 364.259 341.792L251.035 277.126C245.186 273.787 238.41 272.443 231.729 273.297L11.6817 301.721C8.76077 302.095 7.99276 305.969 10.5486 307.429L123.778 372.097C129.626 375.436 136.403 376.781 143.083 375.927Z" fill="white"/>
<path d="M139.197 376.657C133.707 376.657 128.311 375.23 123.538 372.517L10.3135 307.84C9.66881 307.472 9.15613 306.91 8.84798 306.235C8.53983 305.559 8.45178 304.804 8.59629 304.075C8.7408 303.347 9.11056 302.683 9.6533 302.176C10.196 301.669 10.8843 301.346 11.6208 301.251L231.664 272.827C238.449 271.971 245.329 273.336 251.274 276.715L364.499 341.383C365.143 341.751 365.656 342.313 365.964 342.989C366.272 343.664 366.36 344.42 366.216 345.148C366.071 345.876 365.702 346.541 365.159 347.048C364.616 347.554 363.928 347.878 363.191 347.972L143.148 376.397C141.838 376.567 140.518 376.654 139.197 376.657ZM235.626 273.534C234.345 273.534 233.065 273.615 231.794 273.777L11.7405 302.191C11.2015 302.261 10.698 302.499 10.301 302.87C9.90411 303.241 9.63372 303.728 9.52802 304.261C9.42232 304.794 9.48664 305.347 9.71191 305.841C9.93717 306.336 10.312 306.748 10.7836 307.018L124.008 371.686C129.773 374.967 136.445 376.292 143.026 375.463L363.07 347.038C363.609 346.969 364.113 346.732 364.51 346.361C364.907 345.989 365.178 345.503 365.284 344.97C365.39 344.437 365.325 343.884 365.1 343.389C364.875 342.894 364.5 342.482 364.029 342.212L250.804 277.546C246.177 274.912 240.946 273.525 235.622 273.521L235.626 273.534Z" fill="#068585"/>
<path d="M96.4987 340.728C91.5326 340.728 86.6517 339.437 82.3346 336.983L37.471 311.62C36.8808 311.282 36.4115 310.767 36.1294 310.149C35.8473 309.53 35.7667 308.838 35.8988 308.171C36.031 307.504 36.3693 306.895 36.866 306.431C37.3627 305.966 37.9927 305.67 38.6671 305.582L229.465 280.761C235.603 279.986 241.827 281.22 247.205 284.278L292.069 309.634C292.66 309.972 293.13 310.486 293.413 311.105C293.695 311.724 293.776 312.416 293.645 313.084C293.513 313.751 293.174 314.36 292.677 314.825C292.18 315.29 291.55 315.587 290.875 315.674L100.066 340.5C98.8829 340.651 97.6915 340.728 96.4987 340.728ZM233.051 281.472C231.897 281.468 230.743 281.539 229.598 281.682L38.7909 306.51C38.3162 306.576 37.8739 306.789 37.5253 307.118C37.1768 307.447 36.9393 307.876 36.8459 308.346C36.7525 308.816 36.8077 309.304 37.004 309.741C37.2002 310.178 37.5277 310.544 37.9411 310.786L82.7942 336.158C87.9931 339.113 94.0089 340.307 99.9422 339.56L290.751 314.731C291.225 314.664 291.666 314.45 292.013 314.12C292.36 313.79 292.596 313.361 292.688 312.891C292.781 312.421 292.725 311.934 292.528 311.498C292.331 311.061 292.003 310.697 291.59 310.455L246.743 285.094C242.567 282.72 237.845 281.471 233.041 281.472H233.051Z" fill="#068585"/>
<path d="M211.037 355.136C209.649 355.135 208.286 354.773 207.08 354.087L181.427 340.057C181.204 339.932 181.026 339.74 180.918 339.509C180.811 339.277 180.779 339.017 180.828 338.766C180.877 338.516 181.004 338.287 181.19 338.112C181.377 337.938 181.614 337.827 181.867 337.795L234.974 330.935C236.688 330.72 238.427 331.064 239.93 331.917L265.583 345.947C265.806 346.072 265.984 346.264 266.091 346.495C266.199 346.727 266.23 346.987 266.181 347.238C266.133 347.488 266.006 347.717 265.819 347.892C265.632 348.066 265.396 348.177 265.142 348.209L212.036 355.069C211.705 355.113 211.371 355.136 211.037 355.136ZM235.972 331.823C235.678 331.823 235.385 331.841 235.093 331.877L181.987 338.739C181.931 338.746 181.879 338.77 181.837 338.808C181.796 338.846 181.768 338.897 181.757 338.952C181.746 339.007 181.753 339.064 181.776 339.116C181.8 339.167 181.839 339.209 181.888 339.236L207.541 353.264C208.867 354.02 210.402 354.326 211.916 354.135L265.022 347.273C265.078 347.268 265.131 347.245 265.172 347.207C265.214 347.169 265.241 347.119 265.251 347.063C265.263 347.008 265.257 346.95 265.234 346.899C265.21 346.847 265.171 346.805 265.121 346.778L239.468 332.75C238.403 332.143 237.198 331.824 235.972 331.823Z" fill="#068585"/>
<path d="M87.3518 307.807C87.232 307.805 87.1172 307.759 87.0305 307.676C86.9438 307.593 86.8916 307.481 86.8844 307.361C86.8772 307.242 86.9156 307.124 86.9918 307.031C87.068 306.939 87.1764 306.879 87.2951 306.863L167.116 297.16C167.237 297.152 167.356 297.191 167.449 297.269C167.542 297.346 167.602 297.456 167.616 297.576C167.631 297.696 167.599 297.818 167.527 297.915C167.455 298.012 167.348 298.078 167.229 298.1L87.4105 307.803L87.3518 307.807Z" fill="#068585"/>
<path d="M122.248 315.632C122.128 315.63 122.014 315.583 121.928 315.5C121.841 315.417 121.789 315.304 121.783 315.185C121.776 315.066 121.814 314.948 121.89 314.856C121.967 314.763 122.075 314.703 122.194 314.688L145.366 311.871C145.43 311.86 145.495 311.862 145.558 311.876C145.621 311.891 145.68 311.918 145.732 311.957C145.784 311.995 145.827 312.044 145.86 312.1C145.892 312.155 145.913 312.217 145.921 312.281C145.928 312.346 145.923 312.411 145.905 312.473C145.886 312.535 145.856 312.592 145.814 312.642C145.773 312.691 145.722 312.732 145.664 312.761C145.607 312.79 145.544 312.808 145.479 312.812L122.309 315.628L122.248 315.632Z" fill="#068585"/>
<path d="M204.887 317.04C204.764 317.044 204.645 316.999 204.554 316.917C204.463 316.834 204.408 316.719 204.401 316.596C204.394 316.474 204.434 316.353 204.514 316.26C204.595 316.167 204.708 316.109 204.83 316.098L228.003 313.286C228.124 313.277 228.244 313.316 228.337 313.393C228.431 313.47 228.491 313.581 228.506 313.701C228.521 313.822 228.489 313.943 228.417 314.041C228.345 314.138 228.238 314.205 228.118 314.226L204.944 317.044L204.887 317.04Z" fill="#068585"/>
<mask id="mask0_124_270" style="mask-type:luminance" maskUnits="userSpaceOnUse" x="16" y="36" width="324" height="258">
<path d="M24.9037 293.282L225.453 267.707C227.894 267.395 230.138 266.204 231.764 264.357C233.391 262.51 234.288 260.133 234.287 257.672L339.007 85.2852C339.007 80.5491 230.13 35.8576 225.434 36.4578L24.8848 62.0329C22.4433 62.3444 20.1991 63.5352 18.5726 65.3823C16.946 67.2294 16.0486 69.6062 16.0485 72.0674V285.484C16.0484 286.6 16.2861 287.704 16.7458 288.721C17.2054 289.738 17.8765 290.646 18.7142 291.384C19.552 292.121 20.5373 292.672 21.6045 293C22.6717 293.327 23.7964 293.423 24.9037 293.282Z" fill="white"/>
</mask>
<g mask="url(#mask0_124_270)">
<path d="M125.773 402.356L126.865 351.468C126.865 351.468 134.58 369.609 139.665 402.356H197.37C192.265 355.178 175.732 312.371 171.015 300.88C170.618 299.906 170.011 299.032 169.237 298.32C168.463 297.607 167.542 297.074 166.539 296.759C155.266 293.223 115.968 283.906 75.5065 309.851C74.5648 310.454 73.7768 311.27 73.2053 312.231C72.6337 313.193 72.2944 314.275 72.2141 315.39C71.486 325.62 69.7716 357.358 72.424 402.356H125.773Z" fill="#068585"/>
<path d="M258.163 110.85C258.163 110.85 258.396 89.8659 258.773 84.1709C259.193 77.7079 250.363 85.0438 250.023 104.857L258.163 110.85Z" fill="white"/>
<path d="M258.163 111.324C258.062 111.324 257.963 111.291 257.882 111.232L249.742 105.239C249.681 105.194 249.631 105.135 249.598 105.067C249.564 104.999 249.547 104.924 249.549 104.848C249.78 91.4188 253.943 83.2099 256.824 81.6717C257.605 81.2521 258.142 81.4094 258.457 81.613C259.067 82.0075 259.332 82.872 259.246 84.2024C258.874 89.8093 258.639 110.642 258.635 110.852C258.634 110.976 258.584 111.095 258.495 111.183C258.407 111.271 258.287 111.32 258.163 111.32V111.324ZM250.499 104.622L257.701 109.922C257.752 105.801 257.974 89.0896 258.301 84.1394C258.371 83.0777 258.163 82.5489 257.942 82.4083C257.722 82.2677 257.439 82.4083 257.269 82.5069C255.261 83.5792 250.791 90.6277 250.499 104.622Z" fill="#068585"/>
<path d="M254.635 132.086C256.681 127.7 260.945 118.316 261.243 115.605C261.547 112.827 259.355 110.464 258.375 109.551C257.791 109.012 257.237 108.441 256.696 107.872L251.589 102.498C250.311 101.22 249.818 99.273 247.879 99.3674C244.179 99.5479 242.492 105.698 242.492 105.698C242.492 105.698 239.235 102.551 237.179 103.703C235.122 104.855 230.926 114.247 234.52 124.687C237.708 133.932 239.475 131.496 239.374 138.058C237.905 153.795 231.033 188.541 219.206 187.21C207.38 185.88 201.603 177.029 201.603 177.029L174.334 203.561C174.334 203.561 190.912 228.84 223.384 226.091C269.935 222.148 253.519 137.806 253.515 137.785C253.502 137.388 253.496 137.071 253.502 136.855C253.55 135.205 253.936 133.581 254.635 132.086Z" fill="white"/>
<path d="M218.554 226.769C204.075 226.769 193.213 221.198 186.406 216.239C178.222 210.28 173.98 203.884 173.938 203.819C173.877 203.727 173.851 203.617 173.864 203.508C173.876 203.399 173.926 203.297 174.005 203.221L201.265 176.681C201.315 176.632 201.375 176.594 201.442 176.572C201.508 176.549 201.578 176.541 201.648 176.548C201.717 176.556 201.784 176.579 201.844 176.616C201.904 176.652 201.955 176.702 201.993 176.76C202.05 176.846 207.793 185.441 219.252 186.732C220.843 186.912 222.427 186.371 223.959 185.127C232.262 178.374 237.527 152.639 238.895 138.005C238.948 134.503 238.476 133.752 237.454 132.104C236.614 130.772 235.485 128.944 234.067 124.831C230.344 114.029 234.791 104.477 236.942 103.289C238.742 102.291 241.17 103.978 242.255 104.865C242.845 103.174 244.607 99.0527 247.849 98.8932C249.459 98.8093 250.222 99.9025 250.961 100.954C251.244 101.383 251.564 101.787 251.916 102.163L257.025 107.539C257.54 108.08 258.098 108.659 258.687 109.203C259.705 110.145 262.045 112.654 261.705 115.657C261.407 118.368 257.412 127.238 255.057 132.285C254.383 133.721 254.011 135.281 253.966 136.868C253.966 137.078 253.966 137.365 253.979 137.732C254.157 138.656 256.53 151.284 256.772 166.934C256.998 181.652 255.269 201.84 245.742 214.443C240.261 221.693 232.749 225.774 223.416 226.561C221.758 226.704 220.134 226.769 218.554 226.769ZM174.951 203.62C175.91 204.973 179.987 210.393 186.994 215.494C193.677 220.359 204.354 225.823 218.558 225.823C220.113 225.823 221.705 225.758 223.344 225.613C232.399 224.845 239.684 220.894 244.995 213.862C262.941 190.121 253.152 138.385 253.051 137.865C253.048 137.84 253.048 137.815 253.051 137.791C253.036 137.371 253.032 137.055 253.039 136.832C253.084 135.116 253.485 133.427 254.216 131.874C256.092 127.853 260.488 118.215 260.782 115.544C261.063 112.969 258.975 110.73 258.054 109.878C257.445 109.314 256.872 108.722 256.348 108.168L251.238 102.817C250.851 102.406 250.5 101.962 250.189 101.491C249.444 100.429 248.93 99.7829 247.897 99.8333C244.578 99.9949 242.96 105.759 242.945 105.818C242.923 105.897 242.881 105.969 242.823 106.027C242.765 106.084 242.693 106.126 242.614 106.147C242.535 106.17 242.451 106.171 242.372 106.151C242.292 106.13 242.219 106.089 242.16 106.032C241.321 105.228 238.834 103.317 237.403 104.112C235.488 105.176 231.469 114.375 234.965 124.517C236.348 128.529 237.452 130.302 238.26 131.597C239.309 133.296 239.9 134.232 239.842 138.049C238.459 152.874 233.085 178.92 224.557 185.855C222.824 187.265 221.002 187.871 219.147 187.666C208.809 186.503 202.944 179.599 201.536 177.734L174.951 203.62Z" fill="#068585"/>
<path d="M249.278 124.741C247.656 124.741 245.543 123.822 243.422 121.222C239.147 115.976 242.018 105.606 242.144 105.167C242.16 105.107 242.189 105.052 242.227 105.003C242.266 104.954 242.313 104.913 242.367 104.883C242.422 104.852 242.481 104.833 242.543 104.825C242.605 104.818 242.667 104.823 242.727 104.84C242.848 104.875 242.95 104.956 243.011 105.065C243.073 105.175 243.088 105.304 243.054 105.425C243.025 105.528 240.192 115.768 244.156 120.624C246.62 123.646 249.003 124.122 250.292 123.614C251.276 123.226 251.811 122.24 251.727 120.975C251.586 118.876 250.743 116.886 249.335 115.324C249.247 115.234 249.197 115.114 249.197 114.989C249.197 114.864 249.247 114.743 249.335 114.654C249.379 114.61 249.431 114.575 249.488 114.551C249.545 114.527 249.606 114.515 249.669 114.515C249.731 114.515 249.792 114.527 249.849 114.551C249.907 114.575 249.958 114.61 250.002 114.654C251.588 116.373 252.533 118.586 252.678 120.92C252.791 122.618 252.031 123.956 250.646 124.502C250.21 124.668 249.745 124.749 249.278 124.741Z" fill="#068585"/>
<path d="M187.921 223.936L214.894 171.816L188.278 148.759C188.278 148.759 149.447 127.759 124.462 131.605C111.846 133.548 91.3073 135.678 79.8417 140.888C67.6878 146.411 49.2052 155.543 42.7296 167.223L35.9413 194.901C46.5864 204.866 76.3689 212.96 76.3689 212.96L54.8058 301.178C78.1945 324.842 160.401 313.768 184.868 310.291L176.926 219.167L187.921 223.936Z" fill="white"/>
<path d="M116.494 316.4C85.3121 316.4 64.2548 311.41 54.47 301.512C54.4133 301.454 54.3722 301.383 54.3505 301.305C54.3289 301.227 54.3274 301.145 54.3461 301.067L75.8001 213.295C71.9097 212.208 45.642 204.631 35.618 195.249C35.5561 195.192 35.5108 195.119 35.4868 195.038C35.4628 194.957 35.461 194.871 35.4816 194.79L42.2699 167.112C42.28 167.071 42.2955 167.033 42.3161 166.996C48.5945 155.665 65.5641 146.852 79.6464 140.458C89.1542 136.135 104.655 133.949 117.105 132.195C119.713 131.825 122.177 131.479 124.39 131.145C149.248 127.32 188.114 148.142 188.503 148.352C188.534 148.368 188.563 148.388 188.589 148.411L215.202 171.468C215.283 171.537 215.338 171.632 215.358 171.736C215.378 171.841 215.363 171.949 215.314 172.043L188.343 224.161C188.287 224.267 188.193 224.347 188.08 224.386C187.967 224.425 187.844 224.42 187.735 224.371L177.465 219.907L185.34 310.243C185.351 310.364 185.315 310.484 185.24 310.578C185.164 310.673 185.055 310.735 184.935 310.751C158.506 314.526 135.598 316.4 116.494 316.4ZM55.3303 301.033C71.0242 316.578 115.621 319.64 184.358 309.886L176.447 219.207C176.441 219.125 176.455 219.043 176.489 218.968C176.524 218.894 176.577 218.83 176.643 218.782C176.71 218.734 176.788 218.705 176.869 218.696C176.951 218.687 177.033 218.7 177.108 218.732L187.699 223.326L214.296 171.93L188.001 149.152C186.471 148.333 148.69 128.355 124.527 132.073C122.309 132.415 119.841 132.763 117.231 133.122C104.84 134.87 89.4186 137.044 80.0325 141.306C67.1904 147.139 49.4086 156.188 43.168 167.385L36.4532 194.731C47.0647 204.419 76.1841 212.412 76.48 212.492C76.5992 212.524 76.701 212.601 76.7638 212.708C76.8266 212.814 76.8452 212.94 76.8157 213.06L55.3303 301.033Z" fill="#068585"/>
<path d="M134.935 160.458C134.877 160.458 134.819 160.447 134.765 160.426L92.0564 144.009C91.9982 143.986 91.945 143.953 91.8999 143.91C91.8547 143.867 91.8184 143.816 91.7931 143.759C91.7677 143.702 91.7539 143.64 91.7522 143.578C91.7506 143.516 91.7613 143.454 91.7836 143.396C91.8059 143.338 91.8395 143.285 91.8823 143.239C91.9252 143.194 91.9766 143.158 92.0335 143.133C92.0904 143.107 92.1517 143.093 92.2139 143.092C92.2762 143.09 92.3382 143.101 92.3963 143.123L135.109 159.543C135.213 159.582 135.301 159.656 135.356 159.753C135.411 159.849 135.43 159.963 135.409 160.072C135.389 160.181 135.331 160.28 135.245 160.351C135.159 160.421 135.05 160.459 134.939 160.458H134.935Z" fill="#068585"/>
<path d="M169.342 200.745L100.782 179.57C100.366 179.442 99.9299 179.397 99.4972 179.437C99.0645 179.478 98.644 179.603 98.2597 179.806C97.8755 180.009 97.535 180.286 97.2577 180.621C96.9804 180.955 96.7717 181.341 96.6436 181.757L68.9637 271.385C68.7074 272.222 68.7933 273.127 69.2027 273.901C69.6122 274.675 70.3117 275.255 71.1482 275.515L139.709 296.687C140.547 296.946 141.454 296.862 142.23 296.452C143.006 296.042 143.588 295.341 143.847 294.503L171.527 204.875C171.783 204.037 171.697 203.132 171.288 202.358C170.878 201.584 170.179 201.004 169.342 200.745Z" fill="white"/>
<path d="M140.682 297.317C140.305 297.318 139.929 297.261 139.568 297.149L71.0075 275.974C70.5329 275.828 70.0917 275.59 69.7092 275.273C69.3268 274.956 69.0105 274.567 68.7786 274.128C68.5466 273.689 68.4036 273.209 68.3576 272.714C68.3115 272.22 68.3635 271.721 68.5104 271.247L96.1924 181.616C96.3385 181.141 96.5767 180.7 96.8935 180.318C97.2102 179.935 97.5993 179.619 98.0384 179.387C98.4775 179.155 98.9581 179.012 99.4525 178.966C99.947 178.92 100.446 178.972 100.92 179.119L169.481 200.294C169.956 200.44 170.397 200.678 170.78 200.994C171.162 201.311 171.479 201.7 171.711 202.139C171.943 202.578 172.086 203.059 172.133 203.553C172.179 204.048 172.127 204.547 171.98 205.021L144.298 294.652C144.06 295.425 143.58 296.101 142.929 296.58C142.279 297.06 141.491 297.318 140.682 297.317ZM99.8016 179.895C99.1964 179.896 98.6073 180.091 98.1206 180.451C97.6339 180.81 97.2751 181.317 97.0968 181.895L69.4149 271.528C69.3049 271.883 69.266 272.257 69.3006 272.628C69.3351 272.998 69.4424 273.359 69.6162 273.688C69.7901 274.017 70.0271 274.309 70.3137 274.546C70.6003 274.784 70.9309 274.962 71.2866 275.072L139.847 296.247C140.566 296.467 141.342 296.394 142.007 296.043C142.672 295.692 143.17 295.093 143.394 294.375L171.073 204.744C171.294 204.026 171.222 203.249 170.871 202.584C170.52 201.919 169.92 201.421 169.202 201.198L100.641 180.025C100.369 179.94 100.086 179.896 99.8016 179.895Z" fill="#068585"/>
<path d="M161.599 205.573L104.978 187.879L78.3377 273.128L134.958 290.822L161.599 205.573Z" fill="white"/>
<path d="M135.669 288.598C135.622 288.598 135.574 288.591 135.529 288.577L79.1765 271.173C79.0567 271.136 78.9565 271.053 78.8979 270.942C78.8393 270.831 78.8271 270.701 78.8638 270.581L105.069 185.735C105.087 185.676 105.116 185.62 105.156 185.572C105.196 185.524 105.244 185.485 105.299 185.456C105.354 185.427 105.415 185.409 105.476 185.403C105.538 185.397 105.601 185.404 105.66 185.422L162.012 202.826C162.072 202.845 162.127 202.874 162.175 202.914C162.223 202.954 162.263 203.002 162.292 203.057C162.321 203.112 162.339 203.173 162.344 203.234C162.35 203.296 162.344 203.359 162.325 203.418L136.12 288.265C136.091 288.361 136.031 288.446 135.95 288.506C135.869 288.566 135.77 288.598 135.669 288.598ZM79.9088 270.409L135.357 287.534L161.282 203.599L105.832 186.476L79.9088 270.409Z" fill="#068585"/>
<path d="M151.667 191.107L120.811 181.576C120.303 181.419 119.77 181.364 119.241 181.414C118.713 181.463 118.199 181.616 117.73 181.864C117.26 182.112 116.844 182.45 116.505 182.859C116.167 183.268 115.912 183.74 115.756 184.247L113.575 191.308L152.158 203.223L154.339 196.162C154.655 195.137 154.551 194.029 154.05 193.081C153.549 192.133 152.692 191.423 151.667 191.107Z" fill="white"/>
<path d="M152.159 203.697C152.111 203.696 152.064 203.689 152.018 203.676L113.435 191.76C113.375 191.741 113.32 191.712 113.272 191.672C113.224 191.632 113.185 191.584 113.156 191.529C113.126 191.474 113.109 191.413 113.103 191.352C113.097 191.29 113.104 191.227 113.122 191.168L115.302 184.107C115.656 182.962 116.45 182.005 117.509 181.446C118.569 180.887 119.807 180.772 120.951 181.125L151.798 190.654C152.942 191.007 153.9 191.801 154.459 192.86C155.019 193.92 155.135 195.158 154.781 196.303L152.599 203.364C152.57 203.458 152.512 203.542 152.433 203.602C152.354 203.662 152.258 203.695 152.159 203.697ZM114.178 190.996L151.856 202.631L153.896 196.023C154.035 195.576 154.084 195.105 154.041 194.638C153.997 194.171 153.862 193.717 153.644 193.302C153.425 192.887 153.126 192.52 152.765 192.221C152.404 191.921 151.988 191.696 151.539 191.558L120.693 182.027C119.788 181.75 118.81 181.842 117.973 182.284C117.136 182.726 116.509 183.482 116.228 184.386L114.178 190.996Z" fill="#068585"/>
<path d="M140.183 173.573C139.094 173.236 137.949 173.118 136.814 173.224C135.68 173.33 134.577 173.658 133.569 174.191C132.561 174.723 131.668 175.449 130.941 176.326C130.213 177.204 129.666 178.216 129.33 179.306L126.768 187.592L143.345 192.714L145.905 184.421C146.584 182.224 146.362 179.847 145.289 177.813C144.216 175.778 142.38 174.253 140.183 173.573ZM137.961 180.772C137.637 180.673 137.349 180.479 137.135 180.216C136.921 179.953 136.79 179.632 136.758 179.295C136.726 178.957 136.795 178.618 136.957 178.319C137.118 178.021 137.364 177.777 137.663 177.618C137.963 177.46 138.303 177.394 138.641 177.428C138.978 177.463 139.297 177.597 139.559 177.813C139.82 178.03 140.011 178.319 140.108 178.644C140.205 178.969 140.203 179.315 140.103 179.639C139.969 180.073 139.668 180.437 139.267 180.649C138.865 180.862 138.395 180.906 137.961 180.772Z" fill="white"/>
<path d="M143.354 193.193C143.306 193.192 143.258 193.184 143.213 193.17L126.636 188.049C126.576 188.031 126.521 188.002 126.473 187.962C126.425 187.922 126.385 187.874 126.356 187.819C126.327 187.764 126.309 187.703 126.304 187.641C126.298 187.58 126.305 187.517 126.323 187.458L128.883 179.165C129.621 176.872 131.233 174.962 133.37 173.849C135.506 172.737 137.996 172.512 140.297 173.222C142.599 173.933 144.528 175.523 145.665 177.646C146.803 179.77 147.057 182.256 146.373 184.566L143.811 192.859C143.781 192.956 143.72 193.041 143.637 193.101C143.555 193.161 143.456 193.193 143.354 193.193ZM127.36 187.284L143.041 192.127L145.462 184.287C146.071 182.217 145.841 179.991 144.82 178.09C143.8 176.189 142.072 174.766 140.011 174.13C137.95 173.493 135.72 173.694 133.806 174.688C131.891 175.683 130.446 177.391 129.781 179.444L127.36 187.284ZM138.464 181.322C138.246 181.322 138.029 181.289 137.82 181.226C137.292 181.063 136.844 180.707 136.567 180.229C136.29 179.75 136.205 179.185 136.327 178.646C136.449 178.107 136.771 177.634 137.227 177.322C137.684 177.011 138.241 176.883 138.788 176.965C139.335 177.047 139.83 177.332 140.175 177.764C140.52 178.196 140.689 178.742 140.648 179.294C140.607 179.845 140.359 180.36 139.954 180.736C139.549 181.113 139.017 181.322 138.464 181.322ZM138.099 180.321C138.373 180.405 138.668 180.392 138.934 180.283C139.199 180.175 139.419 179.977 139.555 179.725C139.691 179.472 139.736 179.18 139.681 178.899C139.626 178.617 139.475 178.363 139.255 178.181C139.034 177.998 138.756 177.897 138.469 177.896C138.182 177.894 137.904 177.992 137.681 178.173C137.459 178.354 137.306 178.607 137.248 178.888C137.191 179.169 137.233 179.461 137.367 179.715C137.521 180.006 137.784 180.224 138.099 180.321Z" fill="#068585"/>
<path d="M152.704 214.1L107.013 199.991L105.843 203.779L151.535 217.888L152.704 214.1Z" fill="#068585"/>
<path d="M150.308 221.866L104.616 207.758L103.447 211.545L149.138 225.654L150.308 221.866Z" fill="#068585"/>
<path d="M147.907 229.634L102.215 215.525L101.046 219.313L146.737 233.421L147.907 229.634Z" fill="#068585"/>
<path d="M40.1254 197.788L73.7563 212.645C73.7563 212.645 64.4143 229.78 96.3434 241.653C128.272 253.526 134.935 248 134.935 248L145.901 230.135C145.901 230.135 149.716 230.878 147.343 237.034C144.969 243.191 143.637 245.743 149.94 245.168C156.244 244.593 162.35 236.354 162.35 236.354C162.35 236.354 163.215 242.551 160.042 247.138C160.042 247.138 162.927 248.896 158.886 254.495C158.886 254.495 160.233 257.072 154.559 261.854C154.559 261.854 158.319 265.023 147.343 267.335C141.285 268.611 133.493 266.473 133.493 266.473C133.493 266.473 86.9909 278.622 59.3089 261.856C31.627 245.09 40.1254 197.788 40.1254 197.788Z" fill="white"/>
<path d="M98.3474 271.19C85.7172 271.19 70.7179 269.318 59.0613 262.257C47.6104 255.32 40.6249 241.947 38.8643 223.577C37.5381 209.753 39.6365 197.824 39.6575 197.704C39.6708 197.634 39.6997 197.567 39.7422 197.51C39.7847 197.452 39.8397 197.405 39.903 197.371C39.9663 197.338 40.0364 197.319 40.1079 197.316C40.1795 197.314 40.2508 197.327 40.3164 197.356L73.9473 212.213C74.0075 212.239 74.0615 212.277 74.106 212.325C74.1504 212.373 74.1843 212.43 74.2054 212.492C74.2266 212.554 74.2345 212.62 74.2287 212.685C74.2229 212.751 74.2035 212.814 74.1718 212.871C74.1466 212.918 71.6391 217.67 73.9242 223.752C76.5493 230.739 84.1476 236.613 96.5092 241.208C126.149 252.229 133.877 248.116 134.582 247.669L145.494 229.887C145.545 229.806 145.62 229.743 145.708 229.705C145.796 229.668 145.893 229.658 145.987 229.677C146.43 229.788 146.846 229.99 147.207 230.27C147.568 230.55 147.867 230.902 148.085 231.304C148.86 232.703 148.761 234.693 147.79 237.211L147.418 238.168C146.262 241.145 145.427 243.294 146.071 244.148C146.491 244.719 147.75 244.899 149.903 244.702C155.925 244.152 161.914 236.157 161.973 236.075C162.029 236.004 162.105 235.95 162.192 235.92C162.278 235.891 162.372 235.887 162.46 235.909C162.549 235.931 162.629 235.978 162.692 236.045C162.754 236.112 162.796 236.195 162.812 236.285C162.848 236.541 163.626 242.417 160.659 247.052C161.055 247.481 161.322 248.012 161.429 248.586C161.754 250.191 161.072 252.204 159.406 254.571C159.616 255.41 159.738 257.96 155.222 261.9C155.407 262.144 155.536 262.426 155.6 262.726C155.663 263.026 155.658 263.336 155.587 263.634C155.168 265.346 152.414 266.748 147.435 267.797C141.677 269.01 134.538 267.236 133.483 266.957C132.192 267.283 120.941 270.036 106.802 270.919C104.17 271.085 101.325 271.19 98.3474 271.19ZM40.4927 198.468C40.094 201.039 38.6587 211.558 39.8086 223.508C41.0173 236.098 45.426 252.886 59.5523 261.447C70.7137 268.208 85.073 270.21 98.1627 270.21C116.954 270.21 133.107 266.082 133.38 266.013C133.46 265.991 133.545 265.991 133.625 266.013C133.703 266.034 141.379 268.112 147.255 266.869C153.279 265.61 154.496 264.141 154.685 263.401C154.853 262.733 154.265 262.219 154.265 262.215C154.213 262.171 154.17 262.115 154.141 262.053C154.112 261.99 154.097 261.922 154.097 261.853C154.097 261.784 154.112 261.716 154.141 261.654C154.17 261.591 154.213 261.536 154.265 261.491C159.497 257.084 158.485 254.726 158.475 254.701C158.439 254.623 158.424 254.538 158.431 254.453C158.438 254.368 158.467 254.286 158.515 254.216C160.502 251.465 160.705 249.757 160.527 248.808C160.46 248.306 160.2 247.849 159.803 247.535C159.749 247.5 159.703 247.456 159.667 247.403C159.631 247.351 159.606 247.291 159.593 247.229C159.58 247.167 159.58 247.102 159.592 247.04C159.604 246.978 159.629 246.918 159.664 246.865C161.885 243.659 162.052 239.571 161.973 237.595C160.118 239.827 155.18 245.166 149.989 245.64C147.38 245.875 145.985 245.6 145.316 244.712C144.355 243.437 145.175 241.321 146.537 237.819L146.906 236.864C147.746 234.663 147.88 232.903 147.267 231.774C147.013 231.298 146.607 230.921 146.113 230.704L135.342 248.248C135.315 248.292 135.281 248.332 135.241 248.366C134.96 248.599 128.004 253.926 96.1818 242.096C83.539 237.395 75.7498 231.327 73.0324 224.05C70.9991 218.613 72.512 214.263 73.1226 212.869L40.4927 198.468Z" fill="#068585"/>
<path d="M176.955 217.179C176.839 217.18 176.727 217.137 176.64 217.059C176.553 216.982 176.498 216.875 176.485 216.76L173.598 192.358C173.586 192.294 173.587 192.228 173.602 192.165C173.617 192.102 173.644 192.042 173.683 191.99C173.721 191.938 173.77 191.894 173.826 191.861C173.883 191.829 173.945 191.808 174.009 191.801C174.074 191.793 174.139 191.799 174.201 191.818C174.264 191.837 174.321 191.868 174.371 191.91C174.42 191.952 174.461 192.004 174.489 192.062C174.518 192.12 174.535 192.184 174.538 192.248L177.425 216.649C177.439 216.774 177.403 216.9 177.324 216.999C177.246 217.098 177.131 217.161 177.005 217.175L176.955 217.179Z" fill="#068585"/>
<path d="M78.1945 212.064C78.1045 212.064 78.0163 212.039 77.9403 211.991C77.8642 211.943 77.8034 211.874 77.7651 211.793C77.7267 211.712 77.7124 211.621 77.7238 211.532C77.7352 211.443 77.7718 211.358 77.8293 211.289L83.6692 204.209C83.7071 204.157 83.7555 204.113 83.8112 204.08C83.8669 204.046 83.9288 204.025 83.9931 204.017C84.0574 204.009 84.1227 204.014 84.185 204.032C84.2473 204.05 84.3052 204.08 84.3553 204.121C84.4053 204.163 84.4463 204.214 84.4758 204.271C84.5053 204.329 84.5226 204.392 84.5268 204.457C84.5309 204.522 84.5217 204.586 84.4998 204.647C84.4779 204.708 84.4438 204.764 84.3994 204.812L78.5596 211.892C78.5151 211.945 78.4593 211.989 78.3962 212.018C78.3331 212.048 78.2642 212.064 78.1945 212.064Z" fill="#068585"/>
<path d="M105.534 90.9171C105.534 90.9171 99.7092 79.0738 97.6549 76.988C95.6005 74.9022 94.0142 72.701 100.066 68.6595C106.118 64.618 121.889 53.8239 131.569 53.8932C141.249 53.9624 148.018 60.0729 145.041 64.4774C142.063 68.882 140.699 70.739 142.993 71.0244C145.286 71.3098 146.56 73.8698 140.055 77.6364C133.55 81.403 110.873 97.7516 105.534 90.9171Z" fill="#068585"/>
<path d="M138.435 125.098L134.956 112.68C142.485 111.001 144.741 100.78 142.955 92.8016C141.656 87.01 138.242 73.8217 138.242 73.8217C130.383 78.4381 109.116 78.927 109.116 78.927C109.116 78.927 111.326 82.4481 110.056 84.1856C108.787 85.9231 109.58 92.5792 109.58 92.5792C109.58 92.5792 106.829 89.9897 103.883 91.9685C102.227 93.0828 104.12 97.844 105.478 100.501C106.835 103.157 109.752 103.692 109.752 103.692C109.752 103.692 110.233 103.405 111.221 105.755L108.073 122.387C107.436 125.742 105.975 128.886 103.822 131.536C101.668 134.186 98.8888 136.259 95.7349 137.569L134.06 150.159L150.484 135.737C147.664 135.314 145.026 134.084 142.888 132.197C140.751 130.309 139.204 127.844 138.435 125.098Z" fill="white"/>
<path d="M134.047 150.631C133.997 150.631 133.948 150.623 133.9 150.606L95.5733 138.016C95.4814 137.986 95.401 137.928 95.3427 137.851C95.2845 137.774 95.2513 137.681 95.2477 137.585C95.244 137.488 95.27 137.393 95.3223 137.311C95.3745 137.23 95.4504 137.167 95.5397 137.13C98.6242 135.855 101.342 133.831 103.447 131.241C105.552 128.651 106.978 125.577 107.595 122.297L110.724 105.805C110.197 104.578 109.87 104.244 109.767 104.164C109.734 104.168 109.701 104.168 109.668 104.164C109.54 104.141 106.504 103.566 105.052 100.723C104.151 98.9562 101.39 93.0786 103.616 91.5824C105.78 90.1282 107.859 90.913 108.999 91.5929C108.823 89.568 108.606 85.3607 109.67 83.9065C110.554 82.6957 109.278 80.0832 108.711 79.1788C108.667 79.1079 108.643 79.0267 108.64 78.9433C108.638 78.8599 108.657 78.7773 108.697 78.7039C108.737 78.6305 108.795 78.5688 108.866 78.5251C108.937 78.4813 109.018 78.4571 109.102 78.4549C109.311 78.4549 130.335 77.9177 137.999 73.4188C138.062 73.3817 138.133 73.3598 138.206 73.3548C138.279 73.3497 138.352 73.3617 138.42 73.3898C138.488 73.4178 138.548 73.4612 138.596 73.5165C138.644 73.5717 138.679 73.6374 138.697 73.7083C138.731 73.8405 142.128 86.9681 143.412 92.7009C144.671 98.3665 143.866 104.578 141.341 108.55C139.872 110.858 137.917 112.371 135.537 113.026L138.895 124.987C139.641 127.641 141.137 130.024 143.204 131.85C145.27 133.676 147.819 134.867 150.545 135.281C150.634 135.294 150.718 135.333 150.786 135.392C150.854 135.451 150.904 135.528 150.93 135.615C150.956 135.701 150.956 135.793 150.931 135.88C150.906 135.967 150.856 136.045 150.788 136.104L134.364 150.526C134.275 150.598 134.162 150.636 134.047 150.631ZM97.0275 137.497L133.938 149.624L149.424 136.022C146.717 135.429 144.222 134.111 142.207 132.209C140.191 130.308 138.73 127.894 137.98 125.226L134.498 112.799C134.481 112.737 134.477 112.672 134.486 112.608C134.494 112.545 134.516 112.483 134.549 112.428C134.583 112.374 134.627 112.328 134.679 112.292C134.732 112.256 134.791 112.231 134.853 112.218C137.199 111.698 139.113 110.292 140.546 108.038C142.942 104.261 143.706 98.3267 142.493 92.9044C141.369 87.8851 138.618 77.1665 137.938 74.533C130.516 78.4486 113.783 79.2439 109.909 79.3782C110.522 80.568 111.519 82.9874 110.44 84.4647C109.488 85.7657 109.836 90.7284 110.05 92.5288C110.061 92.6253 110.043 92.7229 109.996 92.8084C109.95 92.894 109.879 92.9633 109.792 93.007C109.706 93.0507 109.608 93.0667 109.511 93.0529C109.415 93.039 109.326 92.996 109.255 92.9296C109.154 92.8352 106.737 90.6214 104.147 92.3693C103.031 93.1185 104.183 96.9228 105.899 100.293C107.016 102.488 109.305 103.113 109.758 103.216C109.852 103.21 109.946 103.222 110.035 103.252C110.356 103.359 110.875 103.713 111.653 105.579C111.689 105.664 111.699 105.758 111.681 105.849L108.533 122.481C107.923 125.71 106.565 128.75 104.567 131.358C102.568 133.966 99.9861 136.069 97.0275 137.497Z" fill="#068585"/>
<path d="M128.545 114.01C125.555 114.01 122.964 113.355 120.796 112.048C118.295 110.56 116.44 108.193 115.594 105.409C115.573 105.29 115.597 105.167 115.663 105.066C115.728 104.965 115.83 104.893 115.947 104.864C116.064 104.835 116.188 104.852 116.293 104.911C116.398 104.97 116.477 105.067 116.513 105.182C117.319 107.72 119.023 109.877 121.306 111.248C124.701 113.286 129.257 113.611 134.847 112.212C134.968 112.181 135.097 112.201 135.204 112.265C135.312 112.33 135.389 112.434 135.42 112.556C135.45 112.677 135.431 112.806 135.366 112.913C135.302 113.021 135.197 113.098 135.075 113.129C132.943 113.689 130.75 113.985 128.545 114.01Z" fill="#068585"/>
<path d="M55.1604 289.897C55.0404 289.896 54.9253 289.85 54.8382 289.767C54.7511 289.684 54.6986 289.572 54.6911 289.452C54.6837 289.332 54.7219 289.214 54.798 289.122C54.8742 289.029 54.9827 288.969 55.1016 288.953L185.663 272.304C185.725 272.296 185.788 272.301 185.847 272.317C185.907 272.333 185.963 272.361 186.013 272.399C186.062 272.437 186.103 272.484 186.134 272.538C186.164 272.592 186.184 272.652 186.192 272.713C186.2 272.775 186.196 272.837 186.179 272.897C186.163 272.957 186.135 273.013 186.097 273.062C186.059 273.112 186.012 273.153 185.958 273.183C185.904 273.214 185.845 273.234 185.783 273.242L55.2212 289.893L55.1604 289.897Z" fill="#068585"/>
</g>
<path d="M291.311 48.6416L233.35 39.4614L232.643 43.9257L290.604 53.1058L291.311 48.6416Z" fill="white"/>
<path d="M290.61 53.568H290.537L232.575 44.3897C232.513 44.3802 232.454 44.3587 232.401 44.3263C232.348 44.2939 232.302 44.2514 232.265 44.201C232.228 44.1507 232.202 44.0936 232.188 44.0331C232.173 43.9726 232.171 43.9097 232.181 43.8483L232.888 39.3829C232.897 39.3215 232.919 39.2627 232.952 39.2098C232.984 39.1568 233.027 39.1108 233.077 39.0744C233.127 39.0379 233.184 39.0117 233.245 38.9973C233.305 38.9829 233.368 38.9806 233.429 38.9905L291.391 48.1689C291.515 48.1885 291.626 48.2565 291.7 48.358C291.774 48.4595 291.805 48.5862 291.785 48.7102L291.078 53.1735C291.059 53.2838 291.001 53.3837 290.916 53.4559C290.83 53.528 290.722 53.5677 290.61 53.568ZM233.19 43.523L290.218 52.5461L290.776 49.0166L233.748 39.9935L233.19 43.523Z" fill="#068585"/>
<path d="M289.802 58.1777L231.841 48.9976L231.134 53.4618L289.095 62.642L289.802 58.1777Z" fill="white"/>
<path d="M289.101 63.1011H289.026L231.064 53.9249C231.003 53.9156 230.944 53.8942 230.891 53.8617C230.838 53.8293 230.792 53.7865 230.756 53.736C230.719 53.6858 230.693 53.6287 230.678 53.5682C230.664 53.5077 230.662 53.4449 230.672 53.3835L231.377 48.9202C231.397 48.7967 231.466 48.6862 231.567 48.6124C231.668 48.5386 231.794 48.5075 231.918 48.5257L289.882 57.702C290.006 57.7222 290.117 57.7909 290.191 57.8929C290.227 57.9428 290.254 57.9995 290.268 58.0596C290.282 58.1198 290.285 58.1823 290.274 58.2433L289.567 62.7087C289.549 62.8188 289.492 62.9187 289.407 62.9906C289.321 63.0625 289.213 63.1017 289.101 63.1011ZM231.679 53.0561L288.707 62.0792L289.265 58.5518L232.239 49.5287L231.679 53.0561Z" fill="#068585"/>
<path d="M33.4652 87.9061H33.3833C33.3221 87.8955 33.2636 87.8728 33.2111 87.8395C33.1587 87.8062 33.1133 87.7629 33.0776 87.712C33.0419 87.6611 33.0167 87.6037 33.0032 87.543C32.9898 87.4823 32.9885 87.4196 32.9993 87.3584C33.0224 87.2199 35.5657 73.3307 48.1581 57.3242C55.5444 47.936 64.8949 39.6557 75.9534 32.7121C89.7608 24.0416 106.284 17.4443 125.056 13.1069C125.116 13.0931 125.179 13.0914 125.24 13.1018C125.301 13.1122 125.36 13.1346 125.412 13.1676C125.465 13.2006 125.51 13.2437 125.546 13.2943C125.582 13.3449 125.607 13.4021 125.621 13.4626C125.635 13.5231 125.637 13.5857 125.626 13.6468C125.616 13.708 125.594 13.7665 125.56 13.819C125.527 13.8715 125.484 13.917 125.434 13.9529C125.383 13.9887 125.326 14.0143 125.266 14.0281C82.9998 23.7898 60.4064 43.2754 48.9009 57.9117C36.4554 73.7315 33.9541 87.3878 33.931 87.5221C33.9101 87.6302 33.8521 87.7277 33.7671 87.7978C33.6821 87.8679 33.5753 87.9062 33.4652 87.9061Z" fill="#068585"/>
<path d="M39.179 110.881H39.1454C39.0833 110.877 39.0227 110.861 38.9671 110.833C38.9114 110.805 38.8618 110.767 38.821 110.72C38.7803 110.673 38.7492 110.618 38.7296 110.559C38.71 110.5 38.7023 110.438 38.7068 110.376C38.7068 110.275 39.4706 100.167 43.7891 87.7613C47.7761 76.2978 55.7143 60.4613 70.8584 50.1078C70.9097 50.0707 70.9679 50.0442 71.0297 50.0299C71.0914 50.0156 71.1553 50.0139 71.2178 50.0247C71.2802 50.0356 71.3398 50.0588 71.3931 50.0931C71.4464 50.1274 71.4923 50.172 71.528 50.2243C71.5638 50.2766 71.5887 50.3355 71.6013 50.3976C71.6139 50.4597 71.6139 50.5237 71.6014 50.5858C71.5888 50.6479 71.564 50.7069 71.5283 50.7592C71.4925 50.8116 71.4467 50.8562 71.3935 50.8905C42.8092 70.4349 39.6826 110.046 39.6553 110.443C39.6458 110.563 39.5914 110.674 39.5031 110.756C39.4148 110.837 39.299 110.882 39.179 110.881Z" fill="#068585"/>
<path d="M344.319 298.104C344.23 298.104 344.144 298.079 344.069 298.032C343.994 297.985 343.934 297.919 343.895 297.839C343.856 297.76 343.84 297.672 343.848 297.584C343.857 297.496 343.889 297.412 343.943 297.342C344.153 297.065 365.248 269.31 375.047 238.128C375.085 238.008 375.169 237.908 375.28 237.851C375.392 237.793 375.522 237.781 375.641 237.819C375.761 237.857 375.861 237.941 375.918 238.052C375.976 238.164 375.987 238.293 375.95 238.413C366.1 269.757 344.906 297.64 344.684 297.917C344.641 297.974 344.586 298.02 344.523 298.052C344.459 298.085 344.39 298.102 344.319 298.104Z" fill="#068585"/>
<path d="M336.962 322.114C336.841 322.113 336.724 322.067 336.636 321.984C336.545 321.898 336.492 321.779 336.489 321.654C336.485 321.529 336.531 321.407 336.617 321.316C351.109 305.916 365.265 282.037 365.405 281.797C365.437 281.744 365.479 281.697 365.528 281.66C365.578 281.623 365.634 281.595 365.694 281.58C365.754 281.564 365.817 281.561 365.878 281.57C365.94 281.578 365.999 281.599 366.053 281.631C366.106 281.662 366.153 281.704 366.19 281.753C366.227 281.803 366.255 281.86 366.27 281.92C366.286 281.98 366.289 282.042 366.28 282.104C366.272 282.165 366.251 282.224 366.219 282.278C366.079 282.519 351.871 306.487 337.306 321.965C337.262 322.012 337.208 322.049 337.149 322.075C337.09 322.101 337.026 322.114 336.962 322.114Z" fill="#068585"/>
<path d="M138.322 16.6175C137.341 16.6154 136.383 16.3226 135.568 15.7762C134.754 15.2298 134.12 14.4542 133.746 13.5475C133.372 12.6407 133.276 11.6436 133.468 10.6819C133.661 9.7203 134.135 8.83739 134.829 8.14477C135.523 7.45215 136.407 6.98091 137.37 6.79059C138.332 6.60027 139.329 6.69942 140.234 7.0755C141.14 7.45158 141.914 8.08773 142.459 8.90354C143.003 9.71935 143.293 10.6782 143.293 11.659C143.292 12.311 143.163 12.9564 142.912 13.5584C142.662 14.1605 142.296 14.7073 141.834 15.1678C141.373 15.6282 140.825 15.9932 140.222 16.242C139.619 16.4907 138.974 16.6183 138.322 16.6175ZM138.322 7.64476C137.528 7.64476 136.752 7.88018 136.092 8.32127C135.431 8.76236 134.917 9.3893 134.613 10.1228C134.309 10.8563 134.23 11.6634 134.385 12.4421C134.539 13.2208 134.922 13.9361 135.483 14.4975C136.045 15.0589 136.76 15.4412 137.539 15.5961C138.317 15.7509 139.124 15.6715 139.858 15.3676C140.591 15.0638 141.218 14.5493 141.659 13.8892C142.1 13.229 142.336 12.4529 142.336 11.659C142.335 10.5947 141.912 9.57429 141.159 8.82172C140.406 8.06915 139.386 7.64587 138.322 7.64476Z" fill="#068585"/>
<path d="M25.5731 343.479C24.6302 343.479 23.7084 343.2 22.9244 342.676C22.1404 342.152 21.5293 341.407 21.1685 340.536C20.8076 339.665 20.7132 338.707 20.8972 337.782C21.0811 336.857 21.5352 336.007 22.2019 335.341C22.8687 334.674 23.7182 334.22 24.643 334.036C25.5678 333.852 26.5264 333.946 27.3975 334.307C28.2687 334.668 29.0133 335.279 29.5372 336.063C30.061 336.847 30.3406 337.769 30.3406 338.712C30.3395 339.976 29.8369 341.188 28.943 342.082C28.0492 342.976 26.8372 343.478 25.5731 343.479ZM25.5731 334.891C24.8173 334.891 24.0785 335.115 23.4502 335.535C22.8218 335.955 22.332 336.551 22.0428 337.25C21.7536 337.948 21.6779 338.716 21.8253 339.457C21.9728 340.199 22.3367 340.879 22.8711 341.414C23.4055 341.948 24.0864 342.312 24.8276 342.46C25.5689 342.607 26.3372 342.531 27.0354 342.242C27.7336 341.953 28.3304 341.463 28.7503 340.835C29.1701 340.206 29.3943 339.468 29.3943 338.712C29.3909 337.7 28.987 336.731 28.2709 336.017C27.5547 335.302 26.5847 334.9 25.5731 334.899V334.891Z" fill="#068585"/>
<path d="M348.53 92.6421H336.962C336.892 92.6426 336.824 92.6279 336.761 92.5989C336.699 92.57 336.643 92.5275 336.598 92.4746C336.554 92.4217 336.522 92.3596 336.504 92.2928C336.486 92.226 336.483 92.1561 336.496 92.0881L338.542 80.3707C338.557 80.2811 338.598 80.198 338.66 80.1313C338.722 80.0646 338.802 80.0173 338.89 79.9951C338.978 79.9717 339.07 79.9743 339.156 80.0026C339.242 80.0309 339.318 80.0837 339.375 80.1546L348.897 91.8699C348.953 91.9394 348.989 92.0234 348.999 92.1122C349.01 92.2009 348.995 92.2908 348.957 92.3715C348.918 92.4523 348.858 92.5205 348.782 92.5683C348.707 92.6162 348.619 92.6418 348.53 92.6421ZM337.524 91.6957H347.535L339.295 81.5563L337.524 91.6957Z" fill="#068585"/>
</svg>
