<svg width="125" height="108" viewBox="0 0 125 108" fill="none" xmlns="http://www.w3.org/2000/svg">
<path d="M65.0342 26.4703L65.1265 26.4978L65.1289 26.495C65.88 26.6666 66.6409 26.2257 66.8615 25.4806C68.9891 18.3318 75.6909 13.3386 83.1584 13.3386C83.9697 13.3386 84.6277 12.6806 84.6277 11.8693C84.6277 11.058 83.9697 10.4 83.1584 10.4C74.1011 10.4 66.4896 16.4304 64.0456 24.6431C63.8137 25.4209 64.2567 26.2384 65.0342 26.4703Z" fill="#483EA8" stroke="#F9FFF9" stroke-width="0.3"/>
<path d="M101.627 76.5131H93.7115C92.9831 76.5131 92.3923 75.9222 92.3923 75.1938C92.3923 74.4654 92.9831 73.8745 93.7115 73.8745H101.627C112.538 73.8745 121.416 64.9968 121.416 54.0858C121.416 43.1747 112.538 34.297 101.627 34.297H101.437C101.054 34.297 100.69 34.1312 100.44 33.8419C100.189 33.5526 100.076 33.1691 100.131 32.7902C100.248 31.9685 100.308 31.1431 100.308 30.3393C100.308 20.8831 92.6135 13.1889 83.1574 13.1889C79.4785 13.1889 75.9702 14.3386 73.0112 16.5143C72.361 16.9921 71.4376 16.7801 71.0616 16.0649C62.6816 0.107633 40.7938 -2.03526 29.4461 11.8461C24.6658 17.6942 22.7875 25.3015 24.2926 32.7159C24.4585 33.5347 23.8318 34.298 22.9997 34.298H22.4711C11.56 34.298 2.68233 43.1757 2.68233 54.0868C2.68233 64.9979 11.56 73.8755 22.4711 73.8755H30.3865C31.1149 73.8755 31.7058 74.4664 31.7058 75.1948C31.7058 75.9232 31.1149 76.5141 30.3865 76.5141H22.4711C10.1049 76.5141 0.0437012 66.4529 0.0437012 54.0867C0.0437012 42.0674 9.54788 32.2257 21.4355 31.6829C20.3188 23.9907 22.4541 16.2316 27.4031 10.1764C39.5525 -4.68687 62.8358 -3.0209 72.6781 13.5527C75.8181 11.5842 79.411 10.5515 83.1569 10.5515C94.6136 10.5515 103.692 20.3027 102.898 31.6953C114.676 32.3558 124.054 42.1456 124.054 54.0857C124.054 66.4529 113.993 76.5131 101.626 76.5131L101.627 76.5131Z" fill="#483EA8"/>
<path d="M28.7404 74.4488C28.7404 92.7179 43.6032 107.581 61.8721 107.581C80.1411 107.581 95.0037 92.7177 95.0037 74.4488C95.0037 56.1798 80.1411 41.3172 61.8721 41.3172C43.603 41.3172 28.7404 56.18 28.7404 74.4488ZM31.6795 74.4488C31.6795 57.8011 45.224 44.2563 61.8721 44.2563C78.5198 44.2563 92.0646 57.8008 92.0646 74.4488C92.0646 91.0966 78.5198 104.641 61.8721 104.641C45.2243 104.641 31.6795 91.0969 31.6795 74.4488Z" fill="#483EA8" stroke="#F9FFF9" stroke-width="0.3"/>
<path d="M61.3595 87.726C61.3595 88.3422 61.8593 88.8419 62.4754 88.8419C63.0914 88.8419 63.5912 88.3429 63.5912 87.726V62.6139C63.5912 61.9978 63.0915 61.4981 62.4754 61.4981C61.8592 61.4981 61.3595 61.9978 61.3595 62.6139V87.726Z" fill="#483EA8" stroke="#483EA8" stroke-width="0.3"/>
<path d="M62.4749 64.1942L55.5374 71.1318C55.1021 71.5679 54.3951 71.5678 53.9592 71.1319C53.5232 70.6959 53.5232 69.9897 53.9592 69.5538L61.6858 61.8272C61.6858 61.8272 61.6858 61.8271 61.6858 61.8271C62.1212 61.3911 62.8281 61.3912 63.264 61.8271L70.9906 69.5538C71.4265 69.9896 71.4266 70.6957 70.9908 71.1317C70.773 71.3503 70.4865 71.4586 70.2016 71.4587L62.4749 64.1942ZM62.4749 64.1942L69.4126 71.1319C69.6302 71.3495 69.9165 71.4586 70.2016 71.4587L62.4749 64.1942Z" fill="#483EA8" stroke="#483EA8" stroke-width="0.3"/>
</svg>
