<svg width="60" height="72" viewBox="0 0 60 72" fill="none" xmlns="http://www.w3.org/2000/svg">
<path d="M42.5602 28.5289L42.5602 28.529C42.5602 28.529 42.5602 28.5291 42.5603 28.5291C42.5624 28.5323 42.5644 28.5355 42.5665 28.5386L42.5724 28.5476L42.5748 28.5514L42.5766 28.5543L42.578 28.5567C42.9423 29.1374 42.8542 29.9149 42.3547 30.3936L42.3547 30.3937C41.4427 31.2676 39.8811 30.6049 39.8827 29.3381V29.3381C39.8835 28.7117 40.2934 28.1495 40.8852 27.9528C41.4975 27.7494 42.1689 27.9837 42.5379 28.497L42.5408 28.501L42.5426 28.5035L42.5452 28.5071L42.5523 28.5175L42.5602 28.5289ZM42.5602 28.5289L42.5579 28.5256C42.5579 28.5256 42.5579 28.5255 42.5579 28.5255L42.5602 28.5289ZM42.3515 28.6666L42.3515 28.6666L42.3515 28.6666L42.5565 28.5264L42.5566 28.5265L42.5577 28.5278L42.5586 28.5295L42.5588 28.5299L42.5589 28.53L42.3515 28.6666Z" fill="white" stroke="white" stroke-width="0.5"/>
<path d="M58.923 35.6113L58.923 35.6112L53.5943 28.4659L53.5943 28.4659C53.3185 28.0962 52.8843 27.8781 52.4229 27.8781H45.0902C44.2831 27.8781 43.6291 28.5324 43.6291 29.3393C43.6291 30.1462 44.2831 30.8004 45.0902 30.8004H51.69L55.929 36.4846L51.69 42.1688H19.4898V30.8004H37.4844C38.2915 30.8004 38.9455 30.1462 38.9455 29.3393C38.9455 28.5324 38.2915 27.8781 37.4844 27.8781H33.3803V24.7451H41.9342C42.7413 24.7451 43.3953 24.0909 43.3953 23.284V8.99345C43.3953 8.18653 42.7413 7.53232 41.9342 7.53232H33.3803V2.21113C33.3803 1.40421 32.7263 0.75 31.9191 0.75H28.0435C27.2364 0.75 26.5824 1.40421 26.5824 2.21113V7.53232H7.53977C7.07849 7.53232 6.64424 7.75009 6.36852 8.1199C6.36852 8.11991 6.36851 8.11992 6.3685 8.11993L1.03989 15.2652C0.653373 15.7834 0.65337 16.4941 1.03988 17.0123C1.03988 17.0123 1.03989 17.0123 1.03989 17.0123L6.36866 24.1576C6.64437 24.5275 7.07864 24.7452 7.53993 24.7452H26.5824V27.8783H18.0285C17.2213 27.8783 16.5673 28.5325 16.5673 29.3394V43.6301C16.5673 44.437 17.2213 45.0912 18.0285 45.0912H26.5824V69.7889C26.5824 70.5958 27.2364 71.25 28.0435 71.25H31.9191C32.7263 71.25 33.3803 70.5958 33.3803 69.7889V45.0912H52.4229C52.8842 45.0912 53.3184 44.8734 53.5943 44.5037L53.5943 44.5037L58.923 37.3583L58.923 37.3582C59.3093 36.8399 59.3093 36.1295 58.923 35.6113ZM29.5047 3.67226H30.458V7.53232H29.5047V3.67226ZM4.03384 16.1388L8.27286 10.4546H40.4731V21.823H8.27286L4.03384 16.1388ZM29.5047 24.7452H30.458V27.8783H29.5047V24.7452ZM30.458 68.3276H29.5047V45.0911H30.458V68.3276Z" fill="white" stroke="white" stroke-width="0.5"/>
</svg>
