<svg width="76" height="76" viewBox="0 0 76 76" fill="none" xmlns="http://www.w3.org/2000/svg">
<path d="M47.5334 20.8333V25.1333C47.5283 31.576 47.0044 38.0079 45.9667 44.3665L43.3 60.2665L41.3334 72.9997H35.0001L32.8667 60.2665L30.2001 44.3665C29.1624 38.0079 28.6385 31.576 28.6334 25.1333V20.8333C28.6346 15.4239 30.235 10.1356 33.2334 5.63332C33.76 4.84571 34.4675 4.19565 35.2968 3.73751C36.1261 3.27937 37.053 3.02648 38.0001 3C38.9755 2.99961 39.9359 3.2397 40.7964 3.69902C41.6569 4.15833 42.3909 4.8227 42.9334 5.63332C45.9317 10.1356 47.5321 15.4239 47.5334 20.8333Z" stroke="white" stroke-width="4.775" stroke-miterlimit="10"/>
<path d="M32.7 60.2666L34.8 72.9999H18.9V63.4666L32.7 60.2666Z" stroke="white" stroke-width="4.775" stroke-miterlimit="10"/>
<path d="M57.0996 63.4666V72.9999H41.1997L43.2997 60.2666L57.0996 63.4666Z" stroke="white" stroke-width="4.775" stroke-miterlimit="10"/>
<path d="M30.0332 44.3665L3 50.7332V37.9999L28.4666 25.2666" stroke="white" stroke-width="4.775" stroke-miterlimit="10"/>
<path d="M47.5333 25.2666L72.9999 37.9999V50.7332L45.9667 44.3665" stroke="white" stroke-width="4.775" stroke-miterlimit="10"/>
<path d="M9.36646 25.2666V34.8332" stroke="white" stroke-width="4.775" stroke-miterlimit="10"/>
<path d="M66.6332 25.2666V34.8332" stroke="white" stroke-width="4.775" stroke-miterlimit="10"/>
</svg>
