<svg width="45" height="70" viewBox="0 0 45 70" fill="none" xmlns="http://www.w3.org/2000/svg">
<path d="M19.0912 34.9991C19.0912 36.7564 17.6668 38.1809 15.9095 38.1809C14.1523 38.1809 12.7278 36.7564 12.7278 34.9991C12.7278 33.2419 14.1523 31.8174 15.9095 31.8174C17.6668 31.8174 19.0912 33.2419 19.0912 34.9991Z" fill="white"/>
<path d="M28.6366 38.1809C30.3939 38.1809 31.8184 36.7564 31.8184 34.9991C31.8184 33.2419 30.3939 31.8174 28.6366 31.8174C26.8793 31.8174 25.4548 33.2419 25.4548 34.9991C25.4548 36.7564 26.8793 38.1809 28.6366 38.1809Z" fill="white"/>
<path fill-rule="evenodd" clip-rule="evenodd" d="M44.5455 9.54529C44.5455 4.27358 40.272 0 35.0002 0H9.54613C4.27439 0 0.000840231 4.27358 0.000840231 9.54529V38.1811C0.000840231 42.9121 3.44271 46.8394 7.95907 47.595L0.258086 65.564C-0.434138 67.1791 0.314053 69.0497 1.92921 69.742C3.54437 70.434 5.41486 69.686 6.10709 68.0706L6.64439 66.817H37.9019L38.4393 68.0706C39.1314 69.686 41.0019 70.434 42.617 69.742C44.2324 69.0497 44.9804 67.1791 44.2884 65.564L36.5872 47.595C41.1037 46.8394 44.5455 42.9121 44.5455 38.1811V9.54529ZM35.1748 60.4535H9.37161L10.7352 57.2717H33.8111L35.1748 60.4535ZM31.0837 50.9082H13.4625L14.8261 47.7264H29.7203L31.0837 50.9082ZM38.1819 9.54529C38.1819 7.78806 36.7575 6.36352 35.0002 6.36352H25.4549V22.2723H38.1819V9.54529ZM19.0914 22.2723V6.36352H9.54613C7.78887 6.36352 6.36437 7.78803 6.36437 9.54529V22.2723H19.0914ZM6.36437 38.1811V28.6359H38.1819V38.1811C38.1819 39.9384 36.7575 41.3629 35.0002 41.3629H9.54613C7.78887 41.3629 6.36437 39.9384 6.36437 38.1811Z" fill="white"/>
</svg>
